<svg width="205" height="207" viewBox="0 0 205 207" fill="none" xmlns="http://www.w3.org/2000/svg">
<g filter="url(#filter0_d_3_34)">
<rect x="49" width="100" height="100" rx="50" fill="#B0B0FF" fill-opacity="0.78" shape-rendering="crispEdges"/>
</g>
<g filter="url(#filter1_d_3_34)">
<rect x="80" y="8" width="100" height="100" rx="50" fill="#FFBEBE" fill-opacity="0.8" shape-rendering="crispEdges"/>
</g>
<g filter="url(#filter2_d_3_34)">
<rect x="101" y="36" width="100" height="100" rx="50" fill="#E1FB95" fill-opacity="0.8" shape-rendering="crispEdges"/>
</g>
<g filter="url(#filter3_i_3_34)">
<rect x="97" y="74" width="100" height="100" rx="50" fill="#FFE0A8" fill-opacity="0.8"/>
</g>
<g filter="url(#filter4_d_3_34)">
<rect x="63" y="99" width="100" height="100" rx="50" fill="#FFABF7" fill-opacity="0.8" shape-rendering="crispEdges"/>
</g>
<g filter="url(#filter5_d_3_34)">
<rect x="23" y="90" width="100" height="100" rx="50" fill="#FF9191" fill-opacity="0.8" shape-rendering="crispEdges"/>
</g>
<g filter="url(#filter6_d_3_34)">
<path d="M13 70C13 42.3858 35.3858 20 63 20C90.6142 20 113 42.3858 113 70C113 97.6142 90.6142 120 63 120C35.3858 120 13 97.6142 13 70Z" fill="#CBFFC6" fill-opacity="0.83" shape-rendering="crispEdges"/>
<path d="M4 107C4 79.3858 26.3858 57 54 57C81.6142 57 104 79.3858 104 107C104 134.614 81.6142 157 54 157C26.3858 157 4 134.614 4 107Z" fill="#FFFF92" fill-opacity="0.8" shape-rendering="crispEdges"/>
</g>
<g filter="url(#filter7_d_3_34)">
<path d="M26.15 108V75.15H47.3V81.45H32.81V88.74H46.13V95.04H32.9V108H26.15ZM67.5324 108C65.7924 108 64.2624 107.64 62.9424 106.92C61.6224 106.17 60.5874 105.135 59.8374 103.815C59.1174 102.495 58.7574 100.965 58.7574 99.225V81.225H51.1074V75.15H65.5074V99.225C65.5074 100.035 65.7474 100.695 66.2274 101.205C66.7374 101.685 67.3974 101.925 68.2074 101.925H75.4074V108H67.5324ZM90.4648 108.45C88.2748 108.45 86.3698 108.045 84.7498 107.235C83.1298 106.395 81.8698 105.24 80.9698 103.77C80.0998 102.27 79.6648 100.53 79.6648 98.55V92.7C79.6648 90.72 80.0998 88.995 80.9698 87.525C81.8698 86.025 83.1298 84.87 84.7498 84.06C86.3698 83.22 88.2748 82.8 90.4648 82.8C92.6848 82.8 94.5898 83.22 96.1798 84.06C97.7998 84.87 99.0448 86.025 99.9148 87.525C100.815 88.995 101.265 90.72 101.265 92.7V98.55C101.265 100.53 100.815 102.27 99.9148 103.77C99.0448 105.24 97.7998 106.395 96.1798 107.235C94.5898 108.045 92.6848 108.45 90.4648 108.45ZM90.4648 102.6C91.7848 102.6 92.7898 102.255 93.4798 101.565C94.1698 100.845 94.5148 99.84 94.5148 98.55V92.7C94.5148 91.38 94.1698 90.375 93.4798 89.685C92.7898 88.995 91.7848 88.65 90.4648 88.65C89.1748 88.65 88.1698 88.995 87.4498 89.685C86.7598 90.375 86.4148 91.38 86.4148 92.7V98.55C86.4148 99.84 86.7598 100.845 87.4498 101.565C88.1698 102.255 89.1748 102.6 90.4648 102.6ZM107.997 108L104.397 83.25H109.797L111.597 96.75C111.747 97.74 111.867 98.865 111.957 100.125C112.077 101.385 112.167 102.42 112.227 103.23C112.317 102.42 112.437 101.4 112.587 100.17C112.767 98.91 112.932 97.77 113.082 96.75L115.152 83.25H119.832L121.812 96.75C121.962 97.77 122.112 98.91 122.262 100.17C122.442 101.43 122.577 102.465 122.667 103.275C122.727 102.435 122.817 101.385 122.937 100.125C123.087 98.835 123.222 97.71 123.342 96.75L125.232 83.25H130.497L126.852 108H120.102L118.257 94.05C118.137 93.21 118.002 92.205 117.852 91.035C117.702 89.865 117.582 88.89 117.492 88.11C117.372 88.89 117.237 89.865 117.087 91.035C116.937 92.205 116.802 93.21 116.682 94.05L114.792 108H107.997ZM144.475 108.45C142.285 108.45 140.365 108.045 138.715 107.235C137.095 106.395 135.835 105.24 134.935 103.77C134.065 102.27 133.63 100.53 133.63 98.55V92.7C133.63 90.72 134.065 88.995 134.935 87.525C135.835 86.025 137.095 84.87 138.715 84.06C140.365 83.22 142.285 82.8 144.475 82.8C146.665 82.8 148.555 83.22 150.145 84.06C151.765 84.87 153.01 86.025 153.88 87.525C154.78 88.995 155.23 90.72 155.23 92.7V97.2H140.065V98.55C140.065 100.11 140.44 101.295 141.19 102.105C141.94 102.885 143.065 103.275 144.565 103.275C145.615 103.275 146.455 103.095 147.085 102.735C147.745 102.375 148.18 101.88 148.39 101.25H155.005C154.465 103.41 153.235 105.15 151.315 106.47C149.425 107.79 147.145 108.45 144.475 108.45ZM148.795 93.735V92.61C148.795 91.08 148.435 89.91 147.715 89.1C147.025 88.29 145.945 87.885 144.475 87.885C143.005 87.885 141.895 88.305 141.145 89.145C140.425 89.985 140.065 91.17 140.065 92.7V93.375L149.245 93.285L148.795 93.735ZM161.602 108V83.25H167.902V87.975H169.612L167.677 90.855C167.677 88.185 168.292 86.175 169.522 84.825C170.752 83.475 172.552 82.8 174.922 82.8C177.652 82.8 179.767 83.625 181.267 85.275C182.797 86.925 183.562 89.25 183.562 92.25V94.275H176.362V92.7C176.362 91.35 175.987 90.3 175.237 89.55C174.517 88.8 173.542 88.425 172.312 88.425C171.022 88.425 170.032 88.8 169.342 89.55C168.682 90.3 168.352 91.35 168.352 92.7V108H161.602Z" fill="#B7CBFF"/>
<path d="M26.15 108H25.15V109H26.15V108ZM26.15 75.15V74.15H25.15V75.15H26.15ZM47.3 75.15H48.3V74.15H47.3V75.15ZM47.3 81.45V82.45H48.3V81.45H47.3ZM32.81 81.45V80.45H31.81V81.45H32.81ZM32.81 88.74H31.81V89.74H32.81V88.74ZM46.13 88.74H47.13V87.74H46.13V88.74ZM46.13 95.04V96.04H47.13V95.04H46.13ZM32.9 95.04V94.04H31.9V95.04H32.9ZM32.9 108V109H33.9V108H32.9ZM27.15 108V75.15H25.15V108H27.15ZM26.15 76.15H47.3V74.15H26.15V76.15ZM46.3 75.15V81.45H48.3V75.15H46.3ZM47.3 80.45H32.81V82.45H47.3V80.45ZM31.81 81.45V88.74H33.81V81.45H31.81ZM32.81 89.74H46.13V87.74H32.81V89.74ZM45.13 88.74V95.04H47.13V88.74H45.13ZM46.13 94.04H32.9V96.04H46.13V94.04ZM31.9 95.04V108H33.9V95.04H31.9ZM32.9 107H26.15V109H32.9V107ZM62.9424 106.92L62.4484 107.789L62.456 107.794L62.4636 107.798L62.9424 106.92ZM59.8374 103.815L58.9595 104.294L58.9637 104.301L58.968 104.309L59.8374 103.815ZM58.7574 81.225H59.7574V80.225H58.7574V81.225ZM51.1074 81.225H50.1074V82.225H51.1074V81.225ZM51.1074 75.15V74.15H50.1074V75.15H51.1074ZM65.5074 75.15H66.5074V74.15H65.5074V75.15ZM66.2274 101.205L65.4992 101.89L65.52 101.912L65.5421 101.933L66.2274 101.205ZM75.4074 101.925H76.4074V100.925H75.4074V101.925ZM75.4074 108V109H76.4074V108H75.4074ZM67.5324 107C65.9332 107 64.5728 106.67 63.4213 106.042L62.4636 107.798C63.9521 108.61 65.6516 109 67.5324 109V107ZM63.4364 106.051C62.2731 105.39 61.3678 104.484 60.7069 103.321L58.968 104.309C59.807 105.786 60.9717 106.95 62.4484 107.789L63.4364 106.051ZM60.7153 103.336C60.0872 102.185 59.7574 100.824 59.7574 99.225H57.7574C57.7574 101.106 58.1476 102.805 58.9595 104.294L60.7153 103.336ZM59.7574 99.225V81.225H57.7574V99.225H59.7574ZM58.7574 80.225H51.1074V82.225H58.7574V80.225ZM52.1074 81.225V75.15H50.1074V81.225H52.1074ZM51.1074 76.15H65.5074V74.15H51.1074V76.15ZM64.5074 75.15V99.225H66.5074V75.15H64.5074ZM64.5074 99.225C64.5074 100.247 64.8174 101.166 65.4992 101.89L66.9556 100.52C66.6775 100.224 66.5074 99.823 66.5074 99.225H64.5074ZM65.5421 101.933C66.2665 102.615 67.1855 102.925 68.2074 102.925V100.925C67.6094 100.925 67.2083 100.755 66.9128 100.477L65.5421 101.933ZM68.2074 102.925H75.4074V100.925H68.2074V102.925ZM74.4074 101.925V108H76.4074V101.925H74.4074ZM75.4074 107H67.5324V109H75.4074V107ZM84.7498 107.235L84.2895 108.123L84.2961 108.126L84.3026 108.129L84.7498 107.235ZM80.9698 103.77L80.1048 104.272L80.1108 104.282L80.117 104.292L80.9698 103.77ZM80.9698 87.525L80.1123 87.0105L80.1093 87.0157L80.9698 87.525ZM84.7498 84.06L85.1971 84.9544L85.2036 84.9511L85.2102 84.9478L84.7498 84.06ZM96.1798 84.06L95.7127 84.9442L95.7226 84.9494L95.7326 84.9544L96.1798 84.06ZM99.9148 87.525L99.0498 88.0267L99.0558 88.037L99.062 88.0472L99.9148 87.525ZM99.9148 103.77L99.0573 103.255L99.0543 103.261L99.9148 103.77ZM96.1798 107.235L96.6338 108.126L96.6402 108.123L96.1798 107.235ZM93.4798 101.565L94.187 102.272L94.1945 102.265L94.2018 102.257L93.4798 101.565ZM87.4498 89.685L86.7579 88.963L86.7503 88.9704L86.7427 88.9779L87.4498 89.685ZM87.4498 101.565L86.7279 102.257L86.7426 102.272L86.7579 102.287L87.4498 101.565ZM90.4648 107.45C88.398 107.45 86.6521 107.068 85.1971 106.341L84.3026 108.129C86.0876 109.022 88.1517 109.45 90.4648 109.45V107.45ZM85.2102 106.347C83.742 105.586 82.6219 104.553 81.8227 103.248L80.117 104.292C81.1178 105.927 82.5177 107.204 84.2895 108.123L85.2102 106.347ZM81.8349 103.268C81.0652 101.941 80.6648 100.379 80.6648 98.55H78.6648C78.6648 100.681 79.1345 102.599 80.1048 104.272L81.8349 103.268ZM80.6648 98.55V92.7H78.6648V98.55H80.6648ZM80.6648 92.7C80.6648 90.8703 81.0654 89.327 81.8304 88.0343L80.1093 87.0157C79.1343 88.663 78.6648 90.5697 78.6648 92.7H80.6648ZM81.8273 88.0395C82.6259 86.7086 83.7408 85.6825 85.1971 84.9544L84.3026 83.1656C82.5189 84.0575 81.1138 85.3414 80.1124 87.0105L81.8273 88.0395ZM85.2102 84.9478C86.6621 84.1949 88.4032 83.8 90.4648 83.8V81.8C88.1464 81.8 86.0775 82.2451 84.2895 83.1722L85.2102 84.9478ZM90.4648 83.8C92.5596 83.8 94.2966 84.1961 95.7127 84.9442L96.647 83.1758C94.8831 82.2439 92.81 81.8 90.4648 81.8V83.8ZM95.7326 84.9544C97.1862 85.6812 98.2823 86.7034 99.0498 88.0267L100.78 87.0233C99.8074 85.3466 98.4135 84.0588 96.6271 83.1656L95.7326 84.9544ZM99.062 88.0472C99.8521 89.3377 100.265 90.8763 100.265 92.7H102.265C102.265 90.5637 101.778 88.6523 100.768 87.0028L99.062 88.0472ZM100.265 92.7V98.55H102.265V92.7H100.265ZM100.265 98.55C100.265 100.373 99.8523 101.931 99.0574 103.256L100.772 104.284C101.777 102.609 102.265 100.687 102.265 98.55H100.265ZM99.0543 103.261C98.2862 104.558 97.1852 105.587 95.7195 106.347L96.6402 108.123C98.4145 107.203 99.8035 105.922 100.775 104.279L99.0543 103.261ZM95.7259 106.344C94.3067 107.067 92.5648 107.45 90.4648 107.45V109.45C92.8049 109.45 94.873 109.023 96.6338 108.126L95.7259 106.344ZM90.4648 103.6C91.9539 103.6 93.2509 103.208 94.187 102.272L92.7727 100.858C92.3288 101.302 91.6158 101.6 90.4648 101.6V103.6ZM94.2018 102.257C95.118 101.301 95.5148 100.019 95.5148 98.55H93.5148C93.5148 99.6607 93.2216 100.389 92.7579 100.873L94.2018 102.257ZM95.5148 98.55V92.7H93.5148V98.55H95.5148ZM95.5148 92.7C95.5148 91.2109 95.123 89.9139 94.187 88.9779L92.7727 90.3921C93.2167 90.8361 93.5148 91.5491 93.5148 92.7H95.5148ZM94.187 88.9779C93.2509 88.0418 91.9539 87.65 90.4648 87.65V89.65C91.6158 89.65 92.3288 89.9482 92.7727 90.3921L94.187 88.9779ZM90.4648 87.65C88.9955 87.65 87.714 88.0468 86.7579 88.963L88.1417 90.407C88.6257 89.9432 89.3542 89.65 90.4648 89.65V87.65ZM86.7427 88.9779C85.8067 89.9139 85.4148 91.2109 85.4148 92.7H87.4148C87.4148 91.5491 87.713 90.8361 88.157 90.3921L86.7427 88.9779ZM85.4148 92.7V98.55H87.4148V92.7H85.4148ZM85.4148 98.55C85.4148 100.019 85.8116 101.301 86.7279 102.257L88.1718 100.873C87.708 100.389 87.4148 99.6607 87.4148 98.55H85.4148ZM86.7579 102.287C87.714 103.203 88.9955 103.6 90.4648 103.6V101.6C89.3542 101.6 88.6257 101.307 88.1417 100.843L86.7579 102.287ZM107.997 108L107.008 108.144L107.132 109H107.997V108ZM104.397 83.25V82.25H103.241L103.408 83.3939L104.397 83.25ZM109.797 83.25L110.788 83.1178L110.673 82.25H109.797V83.25ZM111.597 96.75L110.606 96.8822L110.607 96.891L110.609 96.8998L111.597 96.75ZM111.957 100.125L110.96 100.196L110.961 100.208L110.962 100.22L111.957 100.125ZM112.227 103.23L111.23 103.304L113.221 103.34L112.227 103.23ZM112.587 100.17L111.597 100.029L111.596 100.039L111.595 100.049L112.587 100.17ZM113.082 96.75L112.094 96.5984L112.093 96.6045L113.082 96.75ZM115.152 83.25V82.25H114.294L114.164 83.0984L115.152 83.25ZM119.832 83.25L120.822 83.1049L120.696 82.25H119.832V83.25ZM121.812 96.75L120.823 96.8951L120.823 96.8955L121.812 96.75ZM122.262 100.17L121.269 100.288L121.271 100.3L121.272 100.311L122.262 100.17ZM122.667 103.275L121.673 103.385L123.665 103.346L122.667 103.275ZM122.937 100.125L121.944 100.009L121.943 100.02L121.942 100.03L122.937 100.125ZM123.342 96.75L122.352 96.6114L122.351 96.6187L122.35 96.626L123.342 96.75ZM125.232 83.25V82.25H124.363L124.242 83.1114L125.232 83.25ZM130.497 83.25L131.487 83.3957L131.655 82.25H130.497V83.25ZM126.852 108V109H127.716L127.842 108.146L126.852 108ZM120.102 108L119.111 108.131L119.226 109H120.102V108ZM118.257 94.05L119.249 93.9189L119.247 93.9086L118.257 94.05ZM117.852 91.035L116.86 91.1622L116.86 91.1622L117.852 91.035ZM117.492 88.11L118.486 87.9954L116.504 87.9579L117.492 88.11ZM117.087 91.035L118.079 91.1622L118.079 91.1622L117.087 91.035ZM116.682 94.05L115.692 93.9086L115.691 93.9157L116.682 94.05ZM114.792 108V109H115.666L115.783 108.134L114.792 108ZM108.987 107.856L105.387 83.1061L103.408 83.3939L107.008 108.144L108.987 107.856ZM104.397 84.25H109.797V82.25H104.397V84.25ZM108.806 83.3822L110.606 96.8822L112.588 96.6178L110.788 83.1178L108.806 83.3822ZM110.609 96.8998C110.754 97.8581 110.871 98.9561 110.96 100.196L112.955 100.054C112.863 98.7739 112.741 97.6219 112.586 96.6002L110.609 96.8998ZM110.962 100.22C111.081 101.476 111.171 102.504 111.23 103.304L113.225 103.156C113.164 102.336 113.073 101.294 112.953 100.03L110.962 100.22ZM113.221 103.34C113.311 102.535 113.43 101.519 113.58 100.291L111.595 100.049C111.444 101.281 111.324 102.305 111.233 103.12L113.221 103.34ZM113.577 100.311C113.757 99.0525 113.922 97.9139 114.072 96.8955L112.093 96.6045C111.943 97.6261 111.777 98.7675 111.597 100.029L113.577 100.311ZM114.071 96.9016L116.141 83.4016L114.164 83.0984L112.094 96.5984L114.071 96.9016ZM115.152 84.25H119.832V82.25H115.152V84.25ZM118.843 83.3951L120.823 96.8951L122.802 96.6049L120.822 83.1049L118.843 83.3951ZM120.823 96.8955C120.971 97.9046 121.12 99.0353 121.269 100.288L123.255 100.052C123.104 98.7847 122.953 97.6354 122.802 96.6045L120.823 96.8955ZM121.272 100.311C121.452 101.566 121.585 102.59 121.673 103.385L123.661 103.165C123.57 102.34 123.433 101.294 123.252 100.029L121.272 100.311ZM123.665 103.346C123.724 102.517 123.813 101.475 123.933 100.22L121.942 100.03C121.821 101.295 121.731 102.353 121.67 103.204L123.665 103.346ZM123.931 100.241C124.08 98.9525 124.215 97.8304 124.335 96.874L122.35 96.626C122.23 97.5896 122.094 98.7175 121.944 100.009L123.931 100.241ZM124.333 96.8886L126.223 83.3886L124.242 83.1114L122.352 96.6114L124.333 96.8886ZM125.232 84.25H130.497V82.25H125.232V84.25ZM129.508 83.1043L125.863 107.854L127.842 108.146L131.487 83.3957L129.508 83.1043ZM126.852 107H120.102V109H126.852V107ZM121.094 107.869L119.249 93.9189L117.266 94.1811L119.111 108.131L121.094 107.869ZM119.247 93.9086C119.128 93.0747 118.994 92.0748 118.844 90.9078L116.86 91.1622C117.011 92.3352 117.146 93.3452 117.267 94.1914L119.247 93.9086ZM118.844 90.9078C118.694 89.7402 118.575 88.7697 118.486 87.9954L116.499 88.2246C116.59 89.0103 116.71 89.9898 116.86 91.1622L118.844 90.9078ZM116.504 87.9579C116.382 88.7492 116.246 89.7331 116.095 90.9078L118.079 91.1622C118.229 89.9969 118.362 89.0308 118.481 88.2621L116.504 87.9579ZM116.095 90.9078C115.946 92.0748 115.811 93.0747 115.692 93.9086L117.672 94.1914C117.793 93.3452 117.929 92.3352 118.079 91.1622L116.095 90.9078ZM115.691 93.9157L113.801 107.866L115.783 108.134L117.673 94.1843L115.691 93.9157ZM114.792 107H107.997V109H114.792V107ZM138.715 107.235L138.254 108.123L138.264 108.128L138.274 108.133L138.715 107.235ZM134.935 103.77L134.07 104.272L134.076 104.282L134.082 104.292L134.935 103.77ZM134.935 87.525L134.077 87.0105L134.074 87.0157L134.935 87.525ZM138.715 84.06L139.162 84.9545L139.168 84.9512L138.715 84.06ZM150.145 84.06L149.678 84.9442L149.687 84.9494L149.697 84.9544L150.145 84.06ZM153.88 87.525L153.015 88.0267L153.021 88.037L153.027 88.0472L153.88 87.525ZM155.23 97.2V98.2H156.23V97.2H155.23ZM140.065 97.2V96.2H139.065V97.2H140.065ZM141.19 102.105L140.456 102.784L140.462 102.791L140.469 102.798L141.19 102.105ZM147.085 102.735L146.606 101.857L146.597 101.862L146.589 101.867L147.085 102.735ZM148.39 101.25V100.25H147.669L147.441 100.934L148.39 101.25ZM155.005 101.25L155.975 101.493L156.285 100.25H155.005V101.25ZM151.315 106.47L150.748 105.646L150.742 105.65L151.315 106.47ZM148.795 93.735H147.795V96.1492L149.502 94.4421L148.795 93.735ZM147.715 89.1L146.953 89.7485L146.96 89.7565L146.967 89.7644L147.715 89.1ZM141.145 89.145L140.399 88.479L140.392 88.4865L140.385 88.4942L141.145 89.145ZM140.065 93.375H139.065V94.3849L140.074 94.375L140.065 93.375ZM149.245 93.285L149.952 93.9921L151.683 92.261L149.235 92.285L149.245 93.285ZM144.475 107.45C142.408 107.45 140.644 107.068 139.155 106.337L138.274 108.133C140.085 109.022 142.161 109.45 144.475 109.45V107.45ZM139.175 106.347C137.707 105.586 136.587 104.553 135.788 103.248L134.082 104.292C135.083 105.927 136.483 107.204 138.254 108.123L139.175 106.347ZM135.8 103.268C135.03 101.941 134.63 100.379 134.63 98.55H132.63C132.63 100.681 133.099 102.599 134.07 104.272L135.8 103.268ZM134.63 98.55V92.7H132.63V98.55H134.63ZM134.63 92.7C134.63 90.8703 135.03 89.327 135.795 88.0343L134.074 87.0157C133.099 88.663 132.63 90.5697 132.63 92.7H134.63ZM135.792 88.0395C136.591 86.7086 137.706 85.6825 139.162 84.9544L138.267 83.1656C136.484 84.0575 135.079 85.3414 134.077 87.0105L135.792 88.0395ZM139.168 84.9512C140.654 84.1947 142.414 83.8 144.475 83.8V81.8C142.156 81.8 140.075 82.2453 138.261 83.1688L139.168 84.9512ZM144.475 83.8C146.537 83.8 148.26 84.1951 149.678 84.9442L150.612 83.1758C148.85 82.2449 146.792 81.8 144.475 81.8V83.8ZM149.697 84.9544C151.151 85.6812 152.247 86.7034 153.015 88.0267L154.745 87.0233C153.772 85.3466 152.378 84.0588 150.592 83.1656L149.697 84.9544ZM153.027 88.0472C153.817 89.3377 154.23 90.8763 154.23 92.7H156.23C156.23 90.5637 155.742 88.6523 154.733 87.0028L153.027 88.0472ZM154.23 92.7V97.2H156.23V92.7H154.23ZM155.23 96.2H140.065V98.2H155.23V96.2ZM139.065 97.2V98.55H141.065V97.2H139.065ZM139.065 98.55C139.065 100.258 139.475 101.725 140.456 102.784L141.923 101.426C141.404 100.865 141.065 99.9621 141.065 98.55H139.065ZM140.469 102.798C141.471 103.84 142.9 104.275 144.565 104.275V102.275C143.229 102.275 142.409 101.93 141.911 101.412L140.469 102.798ZM144.565 104.275C145.716 104.275 146.747 104.08 147.581 103.603L146.589 101.867C146.162 102.11 145.514 102.275 144.565 102.275V104.275ZM147.564 103.613C148.414 103.149 149.038 102.468 149.338 101.566L147.441 100.934C147.322 101.292 147.075 101.601 146.606 101.857L147.564 103.613ZM148.39 102.25H155.005V100.25H148.39V102.25ZM154.035 101.007C153.557 102.919 152.477 104.457 150.748 105.646L151.881 107.294C153.992 105.843 155.373 103.901 155.975 101.493L154.035 101.007ZM150.742 105.65C149.045 106.835 146.973 107.45 144.475 107.45V109.45C147.316 109.45 149.804 108.745 151.887 107.29L150.742 105.65ZM149.795 93.735V92.61H147.795V93.735H149.795ZM149.795 92.61C149.795 90.9354 149.401 89.4919 148.462 88.4356L146.967 89.7644C147.468 90.3281 147.795 91.2246 147.795 92.61H149.795ZM148.476 88.4515C147.531 87.3426 146.121 86.885 144.475 86.885V88.885C145.769 88.885 146.518 89.2374 146.953 89.7485L148.476 88.4515ZM144.475 86.885C142.812 86.885 141.392 87.3662 140.399 88.479L141.891 89.811C142.397 89.2438 143.197 88.885 144.475 88.885V86.885ZM140.385 88.4942C139.46 89.5744 139.065 91.0224 139.065 92.7H141.065C141.065 91.3176 141.39 90.3956 141.904 89.7958L140.385 88.4942ZM139.065 92.7V93.375H141.065V92.7H139.065ZM140.074 94.375L149.254 94.285L149.235 92.285L140.055 92.375L140.074 94.375ZM148.538 92.5779L148.088 93.0279L149.502 94.4421L149.952 93.9921L148.538 92.5779ZM161.602 108H160.602V109H161.602V108ZM161.602 83.25V82.25H160.602V83.25H161.602ZM167.902 83.25H168.902V82.25H167.902V83.25ZM167.902 87.975H166.902V88.975H167.902V87.975ZM169.612 87.975L170.442 88.5327L171.489 86.975H169.612V87.975ZM167.677 90.855H166.677V94.1365L168.507 91.4127L167.677 90.855ZM169.522 84.825L168.783 84.1515L168.783 84.1515L169.522 84.825ZM181.267 85.275L180.527 85.9477L180.534 85.9549L181.267 85.275ZM183.562 94.275V95.275H184.562V94.275H183.562ZM176.362 94.275H175.362V95.275H176.362V94.275ZM175.237 89.55L174.516 90.2425L174.523 90.2499L174.53 90.2571L175.237 89.55ZM169.342 89.55L168.606 88.8729L168.599 88.8811L168.591 88.8894L169.342 89.55ZM168.352 108V109H169.352V108H168.352ZM162.602 108V83.25H160.602V108H162.602ZM161.602 84.25H167.902V82.25H161.602V84.25ZM166.902 83.25V87.975H168.902V83.25H166.902ZM167.902 88.975H169.612V86.975H167.902V88.975ZM168.782 87.4173L166.847 90.2973L168.507 91.4127L170.442 88.5327L168.782 87.4173ZM168.677 90.855C168.677 88.3208 169.262 86.5949 170.261 85.4985L168.783 84.1515C167.322 85.7551 166.677 88.0492 166.677 90.855H168.677ZM170.261 85.4985C171.249 84.414 172.745 83.8 174.922 83.8V81.8C172.359 81.8 170.255 82.536 168.783 84.1515L170.261 85.4985ZM174.922 83.8C177.439 83.8 179.258 84.5518 180.527 85.9477L182.007 84.6023C180.276 82.6982 177.866 81.8 174.922 81.8V83.8ZM180.534 85.9549C181.842 87.3655 182.562 89.4163 182.562 92.25H184.562C184.562 89.0837 183.752 86.4845 182 84.5951L180.534 85.9549ZM182.562 92.25V94.275H184.562V92.25H182.562ZM183.562 93.275H176.362V95.275H183.562V93.275ZM177.362 94.275V92.7H175.362V94.275H177.362ZM177.362 92.7C177.362 91.1607 176.929 89.8281 175.944 88.8429L174.53 90.2571C175.045 90.7719 175.362 91.5393 175.362 92.7H177.362ZM175.958 88.8575C175.016 87.8753 173.76 87.425 172.312 87.425V89.425C173.324 89.425 174.019 89.7247 174.516 90.2425L175.958 88.8575ZM172.312 87.425C170.822 87.425 169.533 87.8653 168.606 88.8729L170.078 90.2271C170.531 89.7347 171.223 89.425 172.312 89.425V87.425ZM168.591 88.8894C167.722 89.8777 167.352 91.193 167.352 92.7H169.352C169.352 91.507 169.643 90.7223 170.093 90.2106L168.591 88.8894ZM167.352 92.7V108H169.352V92.7H167.352ZM168.352 107H161.602V109H168.352V107Z" fill="#4268C8"/>
</g>
<defs>
<filter id="filter0_d_3_34" x="45" y="0" width="108" height="108" filterUnits="userSpaceOnUse" color-interpolation-filters="sRGB">
<feFlood flood-opacity="0" result="BackgroundImageFix"/>
<feColorMatrix in="SourceAlpha" type="matrix" values="0 0 0 0 0 0 0 0 0 0 0 0 0 0 0 0 0 0 127 0" result="hardAlpha"/>
<feOffset dy="4"/>
<feGaussianBlur stdDeviation="2"/>
<feComposite in2="hardAlpha" operator="out"/>
<feColorMatrix type="matrix" values="0 0 0 0 0 0 0 0 0 0 0 0 0 0 0 0 0 0 0.25 0"/>
<feBlend mode="normal" in2="BackgroundImageFix" result="effect1_dropShadow_3_34"/>
<feBlend mode="normal" in="SourceGraphic" in2="effect1_dropShadow_3_34" result="shape"/>
</filter>
<filter id="filter1_d_3_34" x="76" y="8" width="108" height="108" filterUnits="userSpaceOnUse" color-interpolation-filters="sRGB">
<feFlood flood-opacity="0" result="BackgroundImageFix"/>
<feColorMatrix in="SourceAlpha" type="matrix" values="0 0 0 0 0 0 0 0 0 0 0 0 0 0 0 0 0 0 127 0" result="hardAlpha"/>
<feOffset dy="4"/>
<feGaussianBlur stdDeviation="2"/>
<feComposite in2="hardAlpha" operator="out"/>
<feColorMatrix type="matrix" values="0 0 0 0 0 0 0 0 0 0 0 0 0 0 0 0 0 0 0.25 0"/>
<feBlend mode="normal" in2="BackgroundImageFix" result="effect1_dropShadow_3_34"/>
<feBlend mode="normal" in="SourceGraphic" in2="effect1_dropShadow_3_34" result="shape"/>
</filter>
<filter id="filter2_d_3_34" x="97" y="36" width="108" height="108" filterUnits="userSpaceOnUse" color-interpolation-filters="sRGB">
<feFlood flood-opacity="0" result="BackgroundImageFix"/>
<feColorMatrix in="SourceAlpha" type="matrix" values="0 0 0 0 0 0 0 0 0 0 0 0 0 0 0 0 0 0 127 0" result="hardAlpha"/>
<feOffset dy="4"/>
<feGaussianBlur stdDeviation="2"/>
<feComposite in2="hardAlpha" operator="out"/>
<feColorMatrix type="matrix" values="0 0 0 0 0 0 0 0 0 0 0 0 0 0 0 0 0 0 0.25 0"/>
<feBlend mode="normal" in2="BackgroundImageFix" result="effect1_dropShadow_3_34"/>
<feBlend mode="normal" in="SourceGraphic" in2="effect1_dropShadow_3_34" result="shape"/>
</filter>
<filter id="filter3_i_3_34" x="97" y="74" width="100" height="104" filterUnits="userSpaceOnUse" color-interpolation-filters="sRGB">
<feFlood flood-opacity="0" result="BackgroundImageFix"/>
<feBlend mode="normal" in="SourceGraphic" in2="BackgroundImageFix" result="shape"/>
<feColorMatrix in="SourceAlpha" type="matrix" values="0 0 0 0 0 0 0 0 0 0 0 0 0 0 0 0 0 0 127 0" result="hardAlpha"/>
<feOffset dy="4"/>
<feGaussianBlur stdDeviation="2"/>
<feComposite in2="hardAlpha" operator="arithmetic" k2="-1" k3="1"/>
<feColorMatrix type="matrix" values="0 0 0 0 0 0 0 0 0 0 0 0 0 0 0 0 0 0 0.25 0"/>
<feBlend mode="normal" in2="shape" result="effect1_innerShadow_3_34"/>
</filter>
<filter id="filter4_d_3_34" x="59" y="99" width="108" height="108" filterUnits="userSpaceOnUse" color-interpolation-filters="sRGB">
<feFlood flood-opacity="0" result="BackgroundImageFix"/>
<feColorMatrix in="SourceAlpha" type="matrix" values="0 0 0 0 0 0 0 0 0 0 0 0 0 0 0 0 0 0 127 0" result="hardAlpha"/>
<feOffset dy="4"/>
<feGaussianBlur stdDeviation="2"/>
<feComposite in2="hardAlpha" operator="out"/>
<feColorMatrix type="matrix" values="0 0 0 0 0 0 0 0 0 0 0 0 0 0 0 0 0 0 0.25 0"/>
<feBlend mode="normal" in2="BackgroundImageFix" result="effect1_dropShadow_3_34"/>
<feBlend mode="normal" in="SourceGraphic" in2="effect1_dropShadow_3_34" result="shape"/>
</filter>
<filter id="filter5_d_3_34" x="19" y="90" width="108" height="108" filterUnits="userSpaceOnUse" color-interpolation-filters="sRGB">
<feFlood flood-opacity="0" result="BackgroundImageFix"/>
<feColorMatrix in="SourceAlpha" type="matrix" values="0 0 0 0 0 0 0 0 0 0 0 0 0 0 0 0 0 0 127 0" result="hardAlpha"/>
<feOffset dy="4"/>
<feGaussianBlur stdDeviation="2"/>
<feComposite in2="hardAlpha" operator="out"/>
<feColorMatrix type="matrix" values="0 0 0 0 0 0 0 0 0 0 0 0 0 0 0 0 0 0 0.25 0"/>
<feBlend mode="normal" in2="BackgroundImageFix" result="effect1_dropShadow_3_34"/>
<feBlend mode="normal" in="SourceGraphic" in2="effect1_dropShadow_3_34" result="shape"/>
</filter>
<filter id="filter6_d_3_34" x="0" y="20" width="117" height="145" filterUnits="userSpaceOnUse" color-interpolation-filters="sRGB">
<feFlood flood-opacity="0" result="BackgroundImageFix"/>
<feColorMatrix in="SourceAlpha" type="matrix" values="0 0 0 0 0 0 0 0 0 0 0 0 0 0 0 0 0 0 127 0" result="hardAlpha"/>
<feOffset dy="4"/>
<feGaussianBlur stdDeviation="2"/>
<feComposite in2="hardAlpha" operator="out"/>
<feColorMatrix type="matrix" values="0 0 0 0 0 0 0 0 0 0 0 0 0 0 0 0 0 0 0.25 0"/>
<feBlend mode="normal" in2="BackgroundImageFix" result="effect1_dropShadow_3_34"/>
<feBlend mode="normal" in="SourceGraphic" in2="effect1_dropShadow_3_34" result="shape"/>
</filter>
<filter id="filter7_d_3_34" x="22.15" y="75.15" width="165.412" height="41.3" filterUnits="userSpaceOnUse" color-interpolation-filters="sRGB">
<feFlood flood-opacity="0" result="BackgroundImageFix"/>
<feColorMatrix in="SourceAlpha" type="matrix" values="0 0 0 0 0 0 0 0 0 0 0 0 0 0 0 0 0 0 127 0" result="hardAlpha"/>
<feOffset dy="4"/>
<feGaussianBlur stdDeviation="2"/>
<feComposite in2="hardAlpha" operator="out"/>
<feColorMatrix type="matrix" values="0 0 0 0 0 0 0 0 0 0 0 0 0 0 0 0 0 0 0.25 0"/>
<feBlend mode="normal" in2="BackgroundImageFix" result="effect1_dropShadow_3_34"/>
<feBlend mode="normal" in="SourceGraphic" in2="effect1_dropShadow_3_34" result="shape"/>
</filter>
</defs>
</svg>
