<svg width="205" height="209" viewBox="0 0 205 209" fill="none" xmlns="http://www.w3.org/2000/svg">
<g filter="url(#filter0_f_2_33)">
<g filter="url(#filter1_d_2_33)">
<rect x="49" y="2" width="100" height="100" rx="50" fill="#B0B0FF" fill-opacity="0.78" shape-rendering="crispEdges"/>
</g>
<g filter="url(#filter2_d_2_33)">
<rect x="80" y="10" width="100" height="100" rx="50" fill="#FFBEBE" fill-opacity="0.8" shape-rendering="crispEdges"/>
</g>
<g filter="url(#filter3_d_2_33)">
<rect x="101" y="38" width="100" height="100" rx="50" fill="#E1FB95" fill-opacity="0.8" shape-rendering="crispEdges"/>
</g>
<g filter="url(#filter4_i_2_33)">
<rect x="97" y="76" width="100" height="100" rx="50" fill="#FFE0A8" fill-opacity="0.8"/>
</g>
<g filter="url(#filter5_d_2_33)">
<rect x="63" y="101" width="100" height="100" rx="50" fill="#FFABF7" fill-opacity="0.8" shape-rendering="crispEdges"/>
</g>
<g filter="url(#filter6_d_2_33)">
<rect x="23" y="92" width="100" height="100" rx="50" fill="#FF9191" fill-opacity="0.8" shape-rendering="crispEdges"/>
</g>
<g filter="url(#filter7_d_2_33)">
<path d="M13 72C13 44.3858 35.3858 22 63 22C90.6142 22 113 44.3858 113 72C113 99.6142 90.6142 122 63 122C35.3858 122 13 99.6142 13 72Z" fill="#CBFFC6" fill-opacity="0.83" shape-rendering="crispEdges"/>
<path d="M4 109C4 81.3858 26.3858 59 54 59C81.6142 59 104 81.3858 104 109C104 136.614 81.6142 159 54 159C26.3858 159 4 136.614 4 109Z" fill="#FFFF92" fill-opacity="0.8" shape-rendering="crispEdges"/>
</g>
</g>
<g filter="url(#filter8_d_2_33)">
<path d="M26.15 110V77.15H47.3V83.45H32.81V90.74H46.13V97.04H32.9V110H26.15ZM67.5324 110C65.7924 110 64.2624 109.64 62.9424 108.92C61.6224 108.17 60.5874 107.135 59.8374 105.815C59.1174 104.495 58.7574 102.965 58.7574 101.225V83.225H51.1074V77.15H65.5074V101.225C65.5074 102.035 65.7474 102.695 66.2274 103.205C66.7374 103.685 67.3974 103.925 68.2074 103.925H75.4074V110H67.5324ZM90.4648 110.45C88.2748 110.45 86.3698 110.045 84.7498 109.235C83.1298 108.395 81.8698 107.24 80.9698 105.77C80.0998 104.27 79.6648 102.53 79.6648 100.55V94.7C79.6648 92.72 80.0998 90.995 80.9698 89.525C81.8698 88.025 83.1298 86.87 84.7498 86.06C86.3698 85.22 88.2748 84.8 90.4648 84.8C92.6848 84.8 94.5898 85.22 96.1798 86.06C97.7998 86.87 99.0448 88.025 99.9148 89.525C100.815 90.995 101.265 92.72 101.265 94.7V100.55C101.265 102.53 100.815 104.27 99.9148 105.77C99.0448 107.24 97.7998 108.395 96.1798 109.235C94.5898 110.045 92.6848 110.45 90.4648 110.45ZM90.4648 104.6C91.7848 104.6 92.7898 104.255 93.4798 103.565C94.1698 102.845 94.5148 101.84 94.5148 100.55V94.7C94.5148 93.38 94.1698 92.375 93.4798 91.685C92.7898 90.995 91.7848 90.65 90.4648 90.65C89.1748 90.65 88.1698 90.995 87.4498 91.685C86.7598 92.375 86.4148 93.38 86.4148 94.7V100.55C86.4148 101.84 86.7598 102.845 87.4498 103.565C88.1698 104.255 89.1748 104.6 90.4648 104.6ZM107.997 110L104.397 85.25H109.797L111.597 98.75C111.747 99.74 111.867 100.865 111.957 102.125C112.077 103.385 112.167 104.42 112.227 105.23C112.317 104.42 112.437 103.4 112.587 102.17C112.767 100.91 112.932 99.77 113.082 98.75L115.152 85.25H119.832L121.812 98.75C121.962 99.77 122.112 100.91 122.262 102.17C122.442 103.43 122.577 104.465 122.667 105.275C122.727 104.435 122.817 103.385 122.937 102.125C123.087 100.835 123.222 99.71 123.342 98.75L125.232 85.25H130.497L126.852 110H120.102L118.257 96.05C118.137 95.21 118.002 94.205 117.852 93.035C117.702 91.865 117.582 90.89 117.492 90.11C117.372 90.89 117.237 91.865 117.087 93.035C116.937 94.205 116.802 95.21 116.682 96.05L114.792 110H107.997ZM144.475 110.45C142.285 110.45 140.365 110.045 138.715 109.235C137.095 108.395 135.835 107.24 134.935 105.77C134.065 104.27 133.63 102.53 133.63 100.55V94.7C133.63 92.72 134.065 90.995 134.935 89.525C135.835 88.025 137.095 86.87 138.715 86.06C140.365 85.22 142.285 84.8 144.475 84.8C146.665 84.8 148.555 85.22 150.145 86.06C151.765 86.87 153.01 88.025 153.88 89.525C154.78 90.995 155.23 92.72 155.23 94.7V99.2H140.065V100.55C140.065 102.11 140.44 103.295 141.19 104.105C141.94 104.885 143.065 105.275 144.565 105.275C145.615 105.275 146.455 105.095 147.085 104.735C147.745 104.375 148.18 103.88 148.39 103.25H155.005C154.465 105.41 153.235 107.15 151.315 108.47C149.425 109.79 147.145 110.45 144.475 110.45ZM148.795 95.735V94.61C148.795 93.08 148.435 91.91 147.715 91.1C147.025 90.29 145.945 89.885 144.475 89.885C143.005 89.885 141.895 90.305 141.145 91.145C140.425 91.985 140.065 93.17 140.065 94.7V95.375L149.245 95.285L148.795 95.735ZM161.602 110V85.25H167.902V89.975H169.612L167.677 92.855C167.677 90.185 168.292 88.175 169.522 86.825C170.752 85.475 172.552 84.8 174.922 84.8C177.652 84.8 179.767 85.625 181.267 87.275C182.797 88.925 183.562 91.25 183.562 94.25V96.275H176.362V94.7C176.362 93.35 175.987 92.3 175.237 91.55C174.517 90.8 173.542 90.425 172.312 90.425C171.022 90.425 170.032 90.8 169.342 91.55C168.682 92.3 168.352 93.35 168.352 94.7V110H161.602Z" fill="#B7CBFF"/>
<path d="M26.15 110H25.15V111H26.15V110ZM26.15 77.15V76.15H25.15V77.15H26.15ZM47.3 77.15H48.3V76.15H47.3V77.15ZM47.3 83.45V84.45H48.3V83.45H47.3ZM32.81 83.45V82.45H31.81V83.45H32.81ZM32.81 90.74H31.81V91.74H32.81V90.74ZM46.13 90.74H47.13V89.74H46.13V90.74ZM46.13 97.04V98.04H47.13V97.04H46.13ZM32.9 97.04V96.04H31.9V97.04H32.9ZM32.9 110V111H33.9V110H32.9ZM27.15 110V77.15H25.15V110H27.15ZM26.15 78.15H47.3V76.15H26.15V78.15ZM46.3 77.15V83.45H48.3V77.15H46.3ZM47.3 82.45H32.81V84.45H47.3V82.45ZM31.81 83.45V90.74H33.81V83.45H31.81ZM32.81 91.74H46.13V89.74H32.81V91.74ZM45.13 90.74V97.04H47.13V90.74H45.13ZM46.13 96.04H32.9V98.04H46.13V96.04ZM31.9 97.04V110H33.9V97.04H31.9ZM32.9 109H26.15V111H32.9V109ZM62.9424 108.92L62.4484 109.789L62.456 109.794L62.4636 109.798L62.9424 108.92ZM59.8374 105.815L58.9595 106.294L58.9637 106.301L58.968 106.309L59.8374 105.815ZM58.7574 83.225H59.7574V82.225H58.7574V83.225ZM51.1074 83.225H50.1074V84.225H51.1074V83.225ZM51.1074 77.15V76.15H50.1074V77.15H51.1074ZM65.5074 77.15H66.5074V76.15H65.5074V77.15ZM66.2274 103.205L65.4992 103.89L65.52 103.912L65.5421 103.933L66.2274 103.205ZM75.4074 103.925H76.4074V102.925H75.4074V103.925ZM75.4074 110V111H76.4074V110H75.4074ZM67.5324 109C65.9332 109 64.5728 108.67 63.4213 108.042L62.4636 109.798C63.9521 110.61 65.6516 111 67.5324 111V109ZM63.4364 108.051C62.2731 107.39 61.3678 106.484 60.7069 105.321L58.968 106.309C59.807 107.786 60.9717 108.95 62.4484 109.789L63.4364 108.051ZM60.7153 105.336C60.0872 104.185 59.7574 102.824 59.7574 101.225H57.7574C57.7574 103.106 58.1476 104.805 58.9595 106.294L60.7153 105.336ZM59.7574 101.225V83.225H57.7574V101.225H59.7574ZM58.7574 82.225H51.1074V84.225H58.7574V82.225ZM52.1074 83.225V77.15H50.1074V83.225H52.1074ZM51.1074 78.15H65.5074V76.15H51.1074V78.15ZM64.5074 77.15V101.225H66.5074V77.15H64.5074ZM64.5074 101.225C64.5074 102.247 64.8174 103.166 65.4992 103.89L66.9556 102.52C66.6775 102.224 66.5074 101.823 66.5074 101.225H64.5074ZM65.5421 103.933C66.2665 104.615 67.1855 104.925 68.2074 104.925V102.925C67.6094 102.925 67.2083 102.755 66.9128 102.477L65.5421 103.933ZM68.2074 104.925H75.4074V102.925H68.2074V104.925ZM74.4074 103.925V110H76.4074V103.925H74.4074ZM75.4074 109H67.5324V111H75.4074V109ZM84.7498 109.235L84.2895 110.123L84.2961 110.126L84.3026 110.129L84.7498 109.235ZM80.9698 105.77L80.1048 106.272L80.1108 106.282L80.117 106.292L80.9698 105.77ZM80.9698 89.525L80.1123 89.0105L80.1093 89.0157L80.9698 89.525ZM84.7498 86.06L85.1971 86.9544L85.2036 86.9511L85.2102 86.9478L84.7498 86.06ZM96.1798 86.06L95.7127 86.9442L95.7226 86.9494L95.7326 86.9544L96.1798 86.06ZM99.9148 89.525L99.0498 90.0267L99.0558 90.037L99.062 90.0472L99.9148 89.525ZM99.9148 105.77L99.0573 105.255L99.0543 105.261L99.9148 105.77ZM96.1798 109.235L96.6338 110.126L96.6402 110.123L96.1798 109.235ZM93.4798 103.565L94.187 104.272L94.1945 104.265L94.2018 104.257L93.4798 103.565ZM87.4498 91.685L86.7579 90.963L86.7503 90.9704L86.7427 90.9779L87.4498 91.685ZM87.4498 103.565L86.7279 104.257L86.7426 104.272L86.7579 104.287L87.4498 103.565ZM90.4648 109.45C88.398 109.45 86.6521 109.068 85.1971 108.341L84.3026 110.129C86.0876 111.022 88.1517 111.45 90.4648 111.45V109.45ZM85.2102 108.347C83.742 107.586 82.6219 106.553 81.8227 105.248L80.117 106.292C81.1178 107.927 82.5177 109.204 84.2895 110.123L85.2102 108.347ZM81.8349 105.268C81.0652 103.941 80.6648 102.379 80.6648 100.55H78.6648C78.6648 102.681 79.1345 104.599 80.1048 106.272L81.8349 105.268ZM80.6648 100.55V94.7H78.6648V100.55H80.6648ZM80.6648 94.7C80.6648 92.8703 81.0654 91.327 81.8304 90.0343L80.1093 89.0157C79.1343 90.663 78.6648 92.5697 78.6648 94.7H80.6648ZM81.8273 90.0395C82.6259 88.7086 83.7408 87.6825 85.1971 86.9544L84.3026 85.1656C82.5189 86.0575 81.1138 87.3414 80.1124 89.0105L81.8273 90.0395ZM85.2102 86.9478C86.6621 86.1949 88.4032 85.8 90.4648 85.8V83.8C88.1464 83.8 86.0775 84.2451 84.2895 85.1722L85.2102 86.9478ZM90.4648 85.8C92.5596 85.8 94.2966 86.1961 95.7127 86.9442L96.647 85.1758C94.8831 84.2439 92.81 83.8 90.4648 83.8V85.8ZM95.7326 86.9544C97.1862 87.6812 98.2823 88.7034 99.0498 90.0267L100.78 89.0233C99.8074 87.3466 98.4135 86.0588 96.6271 85.1656L95.7326 86.9544ZM99.062 90.0472C99.8521 91.3377 100.265 92.8763 100.265 94.7H102.265C102.265 92.5637 101.778 90.6523 100.768 89.0028L99.062 90.0472ZM100.265 94.7V100.55H102.265V94.7H100.265ZM100.265 100.55C100.265 102.373 99.8523 103.931 99.0574 105.256L100.772 106.284C101.777 104.609 102.265 102.687 102.265 100.55H100.265ZM99.0543 105.261C98.2862 106.558 97.1852 107.587 95.7195 108.347L96.6402 110.123C98.4145 109.203 99.8035 107.922 100.775 106.279L99.0543 105.261ZM95.7259 108.344C94.3067 109.067 92.5648 109.45 90.4648 109.45V111.45C92.8049 111.45 94.873 111.023 96.6338 110.126L95.7259 108.344ZM90.4648 105.6C91.9539 105.6 93.2509 105.208 94.187 104.272L92.7727 102.858C92.3288 103.302 91.6158 103.6 90.4648 103.6V105.6ZM94.2018 104.257C95.118 103.301 95.5148 102.019 95.5148 100.55H93.5148C93.5148 101.661 93.2216 102.389 92.7579 102.873L94.2018 104.257ZM95.5148 100.55V94.7H93.5148V100.55H95.5148ZM95.5148 94.7C95.5148 93.2109 95.123 91.9139 94.187 90.9779L92.7727 92.3921C93.2167 92.8361 93.5148 93.5491 93.5148 94.7H95.5148ZM94.187 90.9779C93.2509 90.0418 91.9539 89.65 90.4648 89.65V91.65C91.6158 91.65 92.3288 91.9482 92.7727 92.3921L94.187 90.9779ZM90.4648 89.65C88.9955 89.65 87.714 90.0468 86.7579 90.963L88.1417 92.407C88.6257 91.9432 89.3542 91.65 90.4648 91.65V89.65ZM86.7427 90.9779C85.8067 91.9139 85.4148 93.2109 85.4148 94.7H87.4148C87.4148 93.5491 87.713 92.8361 88.157 92.3921L86.7427 90.9779ZM85.4148 94.7V100.55H87.4148V94.7H85.4148ZM85.4148 100.55C85.4148 102.019 85.8116 103.301 86.7279 104.257L88.1718 102.873C87.708 102.389 87.4148 101.661 87.4148 100.55H85.4148ZM86.7579 104.287C87.714 105.203 88.9955 105.6 90.4648 105.6V103.6C89.3542 103.6 88.6257 103.307 88.1417 102.843L86.7579 104.287ZM107.997 110L107.008 110.144L107.132 111H107.997V110ZM104.397 85.25V84.25H103.241L103.408 85.3939L104.397 85.25ZM109.797 85.25L110.788 85.1178L110.673 84.25H109.797V85.25ZM111.597 98.75L110.606 98.8822L110.607 98.891L110.609 98.8998L111.597 98.75ZM111.957 102.125L110.96 102.196L110.961 102.208L110.962 102.22L111.957 102.125ZM112.227 105.23L111.23 105.304L113.221 105.34L112.227 105.23ZM112.587 102.17L111.597 102.029L111.596 102.039L111.595 102.049L112.587 102.17ZM113.082 98.75L112.094 98.5984L112.093 98.6045L113.082 98.75ZM115.152 85.25V84.25H114.294L114.164 85.0984L115.152 85.25ZM119.832 85.25L120.822 85.1049L120.696 84.25H119.832V85.25ZM121.812 98.75L120.823 98.8951L120.823 98.8955L121.812 98.75ZM122.262 102.17L121.269 102.288L121.271 102.3L121.272 102.311L122.262 102.17ZM122.667 105.275L121.673 105.385L123.665 105.346L122.667 105.275ZM122.937 102.125L121.944 102.009L121.943 102.02L121.942 102.03L122.937 102.125ZM123.342 98.75L122.352 98.6114L122.351 98.6187L122.35 98.626L123.342 98.75ZM125.232 85.25V84.25H124.363L124.242 85.1114L125.232 85.25ZM130.497 85.25L131.487 85.3957L131.655 84.25H130.497V85.25ZM126.852 110V111H127.716L127.842 110.146L126.852 110ZM120.102 110L119.111 110.131L119.226 111H120.102V110ZM118.257 96.05L119.249 95.9189L119.247 95.9086L118.257 96.05ZM117.852 93.035L116.86 93.1622L116.86 93.1622L117.852 93.035ZM117.492 90.11L118.486 89.9954L116.504 89.9579L117.492 90.11ZM117.087 93.035L118.079 93.1622L118.079 93.1622L117.087 93.035ZM116.682 96.05L115.692 95.9086L115.691 95.9157L116.682 96.05ZM114.792 110V111H115.666L115.783 110.134L114.792 110ZM108.987 109.856L105.387 85.1061L103.408 85.3939L107.008 110.144L108.987 109.856ZM104.397 86.25H109.797V84.25H104.397V86.25ZM108.806 85.3822L110.606 98.8822L112.588 98.6178L110.788 85.1178L108.806 85.3822ZM110.609 98.8998C110.754 99.8581 110.871 100.956 110.96 102.196L112.955 102.054C112.863 100.774 112.741 99.6219 112.586 98.6002L110.609 98.8998ZM110.962 102.22C111.081 103.476 111.171 104.504 111.23 105.304L113.225 105.156C113.164 104.336 113.073 103.294 112.953 102.03L110.962 102.22ZM113.221 105.34C113.311 104.535 113.43 103.519 113.58 102.291L111.595 102.049C111.444 103.281 111.324 104.305 111.233 105.12L113.221 105.34ZM113.577 102.311C113.757 101.052 113.922 99.9139 114.072 98.8955L112.093 98.6045C111.943 99.6261 111.777 100.768 111.597 102.029L113.577 102.311ZM114.071 98.9016L116.141 85.4016L114.164 85.0984L112.094 98.5984L114.071 98.9016ZM115.152 86.25H119.832V84.25H115.152V86.25ZM118.843 85.3951L120.823 98.8951L122.802 98.6049L120.822 85.1049L118.843 85.3951ZM120.823 98.8955C120.971 99.9046 121.12 101.035 121.269 102.288L123.255 102.052C123.104 100.785 122.953 99.6354 122.802 98.6045L120.823 98.8955ZM121.272 102.311C121.452 103.566 121.585 104.59 121.673 105.385L123.661 105.165C123.57 104.34 123.433 103.294 123.252 102.029L121.272 102.311ZM123.665 105.346C123.724 104.517 123.813 103.475 123.933 102.22L121.942 102.03C121.821 103.295 121.731 104.353 121.67 105.204L123.665 105.346ZM123.931 102.241C124.08 100.952 124.215 99.8304 124.335 98.874L122.35 98.626C122.23 99.5896 122.094 100.718 121.944 102.009L123.931 102.241ZM124.333 98.8886L126.223 85.3886L124.242 85.1114L122.352 98.6114L124.333 98.8886ZM125.232 86.25H130.497V84.25H125.232V86.25ZM129.508 85.1043L125.863 109.854L127.842 110.146L131.487 85.3957L129.508 85.1043ZM126.852 109H120.102V111H126.852V109ZM121.094 109.869L119.249 95.9189L117.266 96.1811L119.111 110.131L121.094 109.869ZM119.247 95.9086C119.128 95.0747 118.994 94.0748 118.844 92.9078L116.86 93.1622C117.011 94.3352 117.146 95.3452 117.267 96.1914L119.247 95.9086ZM118.844 92.9078C118.694 91.7402 118.575 90.7697 118.486 89.9954L116.499 90.2246C116.59 91.0103 116.71 91.9898 116.86 93.1622L118.844 92.9078ZM116.504 89.9579C116.382 90.7492 116.246 91.7331 116.095 92.9078L118.079 93.1622C118.229 91.9969 118.362 91.0308 118.481 90.2621L116.504 89.9579ZM116.095 92.9078C115.946 94.0748 115.811 95.0747 115.692 95.9086L117.672 96.1914C117.793 95.3452 117.929 94.3352 118.079 93.1622L116.095 92.9078ZM115.691 95.9157L113.801 109.866L115.783 110.134L117.673 96.1843L115.691 95.9157ZM114.792 109H107.997V111H114.792V109ZM138.715 109.235L138.254 110.123L138.264 110.128L138.274 110.133L138.715 109.235ZM134.935 105.77L134.07 106.272L134.076 106.282L134.082 106.292L134.935 105.77ZM134.935 89.525L134.077 89.0105L134.074 89.0157L134.935 89.525ZM138.715 86.06L139.162 86.9545L139.168 86.9512L138.715 86.06ZM150.145 86.06L149.678 86.9442L149.687 86.9494L149.697 86.9544L150.145 86.06ZM153.88 89.525L153.015 90.0267L153.021 90.037L153.027 90.0472L153.88 89.525ZM155.23 99.2V100.2H156.23V99.2H155.23ZM140.065 99.2V98.2H139.065V99.2H140.065ZM141.19 104.105L140.456 104.784L140.462 104.791L140.469 104.798L141.19 104.105ZM147.085 104.735L146.606 103.857L146.597 103.862L146.589 103.867L147.085 104.735ZM148.39 103.25V102.25H147.669L147.441 102.934L148.39 103.25ZM155.005 103.25L155.975 103.493L156.285 102.25H155.005V103.25ZM151.315 108.47L150.748 107.646L150.742 107.65L151.315 108.47ZM148.795 95.735H147.795V98.1492L149.502 96.4421L148.795 95.735ZM147.715 91.1L146.953 91.7485L146.96 91.7565L146.967 91.7644L147.715 91.1ZM141.145 91.145L140.399 90.479L140.392 90.4865L140.385 90.4942L141.145 91.145ZM140.065 95.375H139.065V96.3849L140.074 96.375L140.065 95.375ZM149.245 95.285L149.952 95.9921L151.683 94.261L149.235 94.285L149.245 95.285ZM144.475 109.45C142.408 109.45 140.644 109.068 139.155 108.337L138.274 110.133C140.085 111.022 142.161 111.45 144.475 111.45V109.45ZM139.175 108.347C137.707 107.586 136.587 106.553 135.788 105.248L134.082 106.292C135.083 107.927 136.483 109.204 138.254 110.123L139.175 108.347ZM135.8 105.268C135.03 103.941 134.63 102.379 134.63 100.55H132.63C132.63 102.681 133.099 104.599 134.07 106.272L135.8 105.268ZM134.63 100.55V94.7H132.63V100.55H134.63ZM134.63 94.7C134.63 92.8703 135.03 91.327 135.795 90.0343L134.074 89.0157C133.099 90.663 132.63 92.5697 132.63 94.7H134.63ZM135.792 90.0395C136.591 88.7086 137.706 87.6825 139.162 86.9544L138.267 85.1656C136.484 86.0575 135.079 87.3414 134.077 89.0105L135.792 90.0395ZM139.168 86.9512C140.654 86.1947 142.414 85.8 144.475 85.8V83.8C142.156 83.8 140.075 84.2453 138.261 85.1688L139.168 86.9512ZM144.475 85.8C146.537 85.8 148.26 86.1951 149.678 86.9442L150.612 85.1758C148.85 84.2449 146.792 83.8 144.475 83.8V85.8ZM149.697 86.9544C151.151 87.6812 152.247 88.7034 153.015 90.0267L154.745 89.0233C153.772 87.3466 152.378 86.0588 150.592 85.1656L149.697 86.9544ZM153.027 90.0472C153.817 91.3377 154.23 92.8763 154.23 94.7H156.23C156.23 92.5637 155.742 90.6523 154.733 89.0028L153.027 90.0472ZM154.23 94.7V99.2H156.23V94.7H154.23ZM155.23 98.2H140.065V100.2H155.23V98.2ZM139.065 99.2V100.55H141.065V99.2H139.065ZM139.065 100.55C139.065 102.258 139.475 103.725 140.456 104.784L141.923 103.426C141.404 102.865 141.065 101.962 141.065 100.55H139.065ZM140.469 104.798C141.471 105.84 142.9 106.275 144.565 106.275V104.275C143.229 104.275 142.409 103.93 141.911 103.412L140.469 104.798ZM144.565 106.275C145.716 106.275 146.747 106.08 147.581 105.603L146.589 103.867C146.162 104.11 145.514 104.275 144.565 104.275V106.275ZM147.564 105.613C148.414 105.149 149.038 104.468 149.338 103.566L147.441 102.934C147.322 103.292 147.075 103.601 146.606 103.857L147.564 105.613ZM148.39 104.25H155.005V102.25H148.39V104.25ZM154.035 103.007C153.557 104.919 152.477 106.457 150.748 107.646L151.881 109.294C153.992 107.843 155.373 105.901 155.975 103.493L154.035 103.007ZM150.742 107.65C149.045 108.835 146.973 109.45 144.475 109.45V111.45C147.316 111.45 149.804 110.745 151.887 109.29L150.742 107.65ZM149.795 95.735V94.61H147.795V95.735H149.795ZM149.795 94.61C149.795 92.9354 149.401 91.4919 148.462 90.4356L146.967 91.7644C147.468 92.3281 147.795 93.2246 147.795 94.61H149.795ZM148.476 90.4515C147.531 89.3426 146.121 88.885 144.475 88.885V90.885C145.769 90.885 146.518 91.2374 146.953 91.7485L148.476 90.4515ZM144.475 88.885C142.812 88.885 141.392 89.3662 140.399 90.479L141.891 91.811C142.397 91.2438 143.197 90.885 144.475 90.885V88.885ZM140.385 90.4942C139.46 91.5744 139.065 93.0224 139.065 94.7H141.065C141.065 93.3176 141.39 92.3956 141.904 91.7958L140.385 90.4942ZM139.065 94.7V95.375H141.065V94.7H139.065ZM140.074 96.375L149.254 96.285L149.235 94.285L140.055 94.375L140.074 96.375ZM148.538 94.5779L148.088 95.0279L149.502 96.4421L149.952 95.9921L148.538 94.5779ZM161.602 110H160.602V111H161.602V110ZM161.602 85.25V84.25H160.602V85.25H161.602ZM167.902 85.25H168.902V84.25H167.902V85.25ZM167.902 89.975H166.902V90.975H167.902V89.975ZM169.612 89.975L170.442 90.5327L171.489 88.975H169.612V89.975ZM167.677 92.855H166.677V96.1365L168.507 93.4127L167.677 92.855ZM169.522 86.825L168.783 86.1515L168.783 86.1515L169.522 86.825ZM181.267 87.275L180.527 87.9477L180.534 87.9549L181.267 87.275ZM183.562 96.275V97.275H184.562V96.275H183.562ZM176.362 96.275H175.362V97.275H176.362V96.275ZM175.237 91.55L174.516 92.2425L174.523 92.2499L174.53 92.2571L175.237 91.55ZM169.342 91.55L168.606 90.8729L168.599 90.8811L168.591 90.8894L169.342 91.55ZM168.352 110V111H169.352V110H168.352ZM162.602 110V85.25H160.602V110H162.602ZM161.602 86.25H167.902V84.25H161.602V86.25ZM166.902 85.25V89.975H168.902V85.25H166.902ZM167.902 90.975H169.612V88.975H167.902V90.975ZM168.782 89.4173L166.847 92.2973L168.507 93.4127L170.442 90.5327L168.782 89.4173ZM168.677 92.855C168.677 90.3208 169.262 88.5949 170.261 87.4985L168.783 86.1515C167.322 87.7551 166.677 90.0492 166.677 92.855H168.677ZM170.261 87.4985C171.249 86.414 172.745 85.8 174.922 85.8V83.8C172.359 83.8 170.255 84.536 168.783 86.1515L170.261 87.4985ZM174.922 85.8C177.439 85.8 179.258 86.5518 180.527 87.9477L182.007 86.6023C180.276 84.6982 177.866 83.8 174.922 83.8V85.8ZM180.534 87.9549C181.842 89.3655 182.562 91.4163 182.562 94.25H184.562C184.562 91.0837 183.752 88.4845 182 86.5951L180.534 87.9549ZM182.562 94.25V96.275H184.562V94.25H182.562ZM183.562 95.275H176.362V97.275H183.562V95.275ZM177.362 96.275V94.7H175.362V96.275H177.362ZM177.362 94.7C177.362 93.1607 176.929 91.8281 175.944 90.8429L174.53 92.2571C175.045 92.7719 175.362 93.5393 175.362 94.7H177.362ZM175.958 90.8575C175.016 89.8753 173.76 89.425 172.312 89.425V91.425C173.324 91.425 174.019 91.7247 174.516 92.2425L175.958 90.8575ZM172.312 89.425C170.822 89.425 169.533 89.8653 168.606 90.8729L170.078 92.2271C170.531 91.7347 171.223 91.425 172.312 91.425V89.425ZM168.591 90.8894C167.722 91.8777 167.352 93.193 167.352 94.7H169.352C169.352 93.507 169.643 92.7223 170.093 92.2106L168.591 90.8894ZM167.352 94.7V110H169.352V94.7H167.352ZM168.352 109H161.602V111H168.352V109Z" fill="#4268C8"/>
</g>
<defs>
<filter id="filter0_f_2_33" x="2" y="0" width="201" height="203" filterUnits="userSpaceOnUse" color-interpolation-filters="sRGB">
<feFlood flood-opacity="0" result="BackgroundImageFix"/>
<feBlend mode="normal" in="SourceGraphic" in2="BackgroundImageFix" result="shape"/>
<feGaussianBlur stdDeviation="1" result="effect1_foregroundBlur_2_33"/>
</filter>
<filter id="filter1_d_2_33" x="45" y="2" width="108" height="108" filterUnits="userSpaceOnUse" color-interpolation-filters="sRGB">
<feFlood flood-opacity="0" result="BackgroundImageFix"/>
<feColorMatrix in="SourceAlpha" type="matrix" values="0 0 0 0 0 0 0 0 0 0 0 0 0 0 0 0 0 0 127 0" result="hardAlpha"/>
<feOffset dy="4"/>
<feGaussianBlur stdDeviation="2"/>
<feComposite in2="hardAlpha" operator="out"/>
<feColorMatrix type="matrix" values="0 0 0 0 0 0 0 0 0 0 0 0 0 0 0 0 0 0 0.25 0"/>
<feBlend mode="normal" in2="BackgroundImageFix" result="effect1_dropShadow_2_33"/>
<feBlend mode="normal" in="SourceGraphic" in2="effect1_dropShadow_2_33" result="shape"/>
</filter>
<filter id="filter2_d_2_33" x="76" y="10" width="108" height="108" filterUnits="userSpaceOnUse" color-interpolation-filters="sRGB">
<feFlood flood-opacity="0" result="BackgroundImageFix"/>
<feColorMatrix in="SourceAlpha" type="matrix" values="0 0 0 0 0 0 0 0 0 0 0 0 0 0 0 0 0 0 127 0" result="hardAlpha"/>
<feOffset dy="4"/>
<feGaussianBlur stdDeviation="2"/>
<feComposite in2="hardAlpha" operator="out"/>
<feColorMatrix type="matrix" values="0 0 0 0 0 0 0 0 0 0 0 0 0 0 0 0 0 0 0.25 0"/>
<feBlend mode="normal" in2="BackgroundImageFix" result="effect1_dropShadow_2_33"/>
<feBlend mode="normal" in="SourceGraphic" in2="effect1_dropShadow_2_33" result="shape"/>
</filter>
<filter id="filter3_d_2_33" x="97" y="38" width="108" height="108" filterUnits="userSpaceOnUse" color-interpolation-filters="sRGB">
<feFlood flood-opacity="0" result="BackgroundImageFix"/>
<feColorMatrix in="SourceAlpha" type="matrix" values="0 0 0 0 0 0 0 0 0 0 0 0 0 0 0 0 0 0 127 0" result="hardAlpha"/>
<feOffset dy="4"/>
<feGaussianBlur stdDeviation="2"/>
<feComposite in2="hardAlpha" operator="out"/>
<feColorMatrix type="matrix" values="0 0 0 0 0 0 0 0 0 0 0 0 0 0 0 0 0 0 0.25 0"/>
<feBlend mode="normal" in2="BackgroundImageFix" result="effect1_dropShadow_2_33"/>
<feBlend mode="normal" in="SourceGraphic" in2="effect1_dropShadow_2_33" result="shape"/>
</filter>
<filter id="filter4_i_2_33" x="97" y="76" width="100" height="104" filterUnits="userSpaceOnUse" color-interpolation-filters="sRGB">
<feFlood flood-opacity="0" result="BackgroundImageFix"/>
<feBlend mode="normal" in="SourceGraphic" in2="BackgroundImageFix" result="shape"/>
<feColorMatrix in="SourceAlpha" type="matrix" values="0 0 0 0 0 0 0 0 0 0 0 0 0 0 0 0 0 0 127 0" result="hardAlpha"/>
<feOffset dy="4"/>
<feGaussianBlur stdDeviation="2"/>
<feComposite in2="hardAlpha" operator="arithmetic" k2="-1" k3="1"/>
<feColorMatrix type="matrix" values="0 0 0 0 0 0 0 0 0 0 0 0 0 0 0 0 0 0 0.25 0"/>
<feBlend mode="normal" in2="shape" result="effect1_innerShadow_2_33"/>
</filter>
<filter id="filter5_d_2_33" x="59" y="101" width="108" height="108" filterUnits="userSpaceOnUse" color-interpolation-filters="sRGB">
<feFlood flood-opacity="0" result="BackgroundImageFix"/>
<feColorMatrix in="SourceAlpha" type="matrix" values="0 0 0 0 0 0 0 0 0 0 0 0 0 0 0 0 0 0 127 0" result="hardAlpha"/>
<feOffset dy="4"/>
<feGaussianBlur stdDeviation="2"/>
<feComposite in2="hardAlpha" operator="out"/>
<feColorMatrix type="matrix" values="0 0 0 0 0 0 0 0 0 0 0 0 0 0 0 0 0 0 0.25 0"/>
<feBlend mode="normal" in2="BackgroundImageFix" result="effect1_dropShadow_2_33"/>
<feBlend mode="normal" in="SourceGraphic" in2="effect1_dropShadow_2_33" result="shape"/>
</filter>
<filter id="filter6_d_2_33" x="19" y="92" width="108" height="108" filterUnits="userSpaceOnUse" color-interpolation-filters="sRGB">
<feFlood flood-opacity="0" result="BackgroundImageFix"/>
<feColorMatrix in="SourceAlpha" type="matrix" values="0 0 0 0 0 0 0 0 0 0 0 0 0 0 0 0 0 0 127 0" result="hardAlpha"/>
<feOffset dy="4"/>
<feGaussianBlur stdDeviation="2"/>
<feComposite in2="hardAlpha" operator="out"/>
<feColorMatrix type="matrix" values="0 0 0 0 0 0 0 0 0 0 0 0 0 0 0 0 0 0 0.25 0"/>
<feBlend mode="normal" in2="BackgroundImageFix" result="effect1_dropShadow_2_33"/>
<feBlend mode="normal" in="SourceGraphic" in2="effect1_dropShadow_2_33" result="shape"/>
</filter>
<filter id="filter7_d_2_33" x="0" y="22" width="117" height="145" filterUnits="userSpaceOnUse" color-interpolation-filters="sRGB">
<feFlood flood-opacity="0" result="BackgroundImageFix"/>
<feColorMatrix in="SourceAlpha" type="matrix" values="0 0 0 0 0 0 0 0 0 0 0 0 0 0 0 0 0 0 127 0" result="hardAlpha"/>
<feOffset dy="4"/>
<feGaussianBlur stdDeviation="2"/>
<feComposite in2="hardAlpha" operator="out"/>
<feColorMatrix type="matrix" values="0 0 0 0 0 0 0 0 0 0 0 0 0 0 0 0 0 0 0.25 0"/>
<feBlend mode="normal" in2="BackgroundImageFix" result="effect1_dropShadow_2_33"/>
<feBlend mode="normal" in="SourceGraphic" in2="effect1_dropShadow_2_33" result="shape"/>
</filter>
<filter id="filter8_d_2_33" x="22.15" y="77.15" width="165.412" height="41.3" filterUnits="userSpaceOnUse" color-interpolation-filters="sRGB">
<feFlood flood-opacity="0" result="BackgroundImageFix"/>
<feColorMatrix in="SourceAlpha" type="matrix" values="0 0 0 0 0 0 0 0 0 0 0 0 0 0 0 0 0 0 127 0" result="hardAlpha"/>
<feOffset dy="4"/>
<feGaussianBlur stdDeviation="2"/>
<feComposite in2="hardAlpha" operator="out"/>
<feColorMatrix type="matrix" values="0 0 0 0 0 0 0 0 0 0 0 0 0 0 0 0 0 0 0.25 0"/>
<feBlend mode="normal" in2="BackgroundImageFix" result="effect1_dropShadow_2_33"/>
<feBlend mode="normal" in="SourceGraphic" in2="effect1_dropShadow_2_33" result="shape"/>
</filter>
</defs>
</svg>
