<svg width="478" height="293" viewBox="0 0 478 293" fill="none" xmlns="http://www.w3.org/2000/svg">
<g filter="url(#filter0_f_18_3)">
<g filter="url(#filter1_d_18_3)">
<rect x="108.188" y="1" width="142.64" height="142.64" rx="71.3198" fill="#B0B0FF" fill-opacity="0.78" shape-rendering="crispEdges"/>
</g>
<g filter="url(#filter2_d_18_3)">
<rect x="152.406" y="12.4112" width="142.64" height="142.64" rx="71.3198" fill="#FFBEBE" fill-opacity="0.8" shape-rendering="crispEdges"/>
</g>
<g filter="url(#filter3_d_18_3)">
<rect x="182.36" y="52.3503" width="142.64" height="142.64" rx="71.3198" fill="#E1FB95" fill-opacity="0.8" shape-rendering="crispEdges"/>
</g>
<g filter="url(#filter4_i_18_3)">
<rect x="176.655" y="106.553" width="142.64" height="142.64" rx="71.3198" fill="#FFE0A8" fill-opacity="0.8"/>
</g>
<g filter="url(#filter5_d_18_3)">
<rect x="128.157" y="142.213" width="142.64" height="142.64" rx="71.3198" fill="#FFABF7" fill-opacity="0.8" shape-rendering="crispEdges"/>
</g>
<g filter="url(#filter6_d_18_3)">
<rect x="71.1015" y="129.376" width="142.64" height="142.64" rx="71.3198" fill="#FF9191" fill-opacity="0.8" shape-rendering="crispEdges"/>
</g>
<g filter="url(#filter7_d_18_3)">
<path d="M56.8376 100.848C56.8376 61.4589 88.7685 29.5279 128.157 29.5279C167.546 29.5279 199.477 61.4589 199.477 100.848C199.477 140.237 167.546 172.168 128.157 172.168C88.7685 172.168 56.8376 140.237 56.8376 100.848Z" fill="#CBFFC6" fill-opacity="0.83" shape-rendering="crispEdges"/>
<path d="M44 153.624C44 114.236 75.931 82.3046 115.32 82.3046C154.709 82.3046 186.64 114.236 186.64 153.624C186.64 193.013 154.709 224.944 115.32 224.944C75.931 224.944 44 193.013 44 153.624Z" fill="#FFFF92" fill-opacity="0.8" shape-rendering="crispEdges"/>
</g>
</g>
<path d="M8.48 180V102.62H56.604V114.916H21.518V135.586H53.848V147.882H21.73V180H8.48ZM104.263 180C100.447 180 97.0899 179.223 94.1926 177.668C91.3659 176.113 89.1399 173.923 87.5146 171.096C85.8893 168.199 85.0766 164.877 85.0766 161.132V114.598H66.4206V102.62H98.3266V161.132C98.3266 163.252 98.9273 164.948 100.129 166.22C101.401 167.421 103.097 168.022 105.217 168.022H122.813V180H104.263ZM158.917 180.954C153.971 180.954 149.66 180.035 145.985 178.198C142.381 176.29 139.555 173.64 137.505 170.248C135.527 166.785 134.537 162.722 134.537 158.058V143.642C134.537 138.978 135.527 134.95 137.505 131.558C139.555 128.095 142.381 125.445 145.985 123.608C149.66 121.7 153.971 120.746 158.917 120.746C163.935 120.746 168.245 121.7 171.849 123.608C175.453 125.445 178.245 128.095 180.223 131.558C182.273 134.95 183.297 138.943 183.297 143.536V158.058C183.297 162.722 182.273 166.785 180.223 170.248C178.245 173.64 175.453 176.29 171.849 178.198C168.245 180.035 163.935 180.954 158.917 180.954ZM158.917 169.4C162.451 169.4 165.171 168.446 167.079 166.538C169.058 164.559 170.047 161.733 170.047 158.058V143.642C170.047 139.897 169.058 137.07 167.079 135.162C165.171 133.254 162.451 132.3 158.917 132.3C155.455 132.3 152.734 133.254 150.755 135.162C148.777 137.07 147.787 139.897 147.787 143.642V158.058C147.787 161.733 148.777 164.559 150.755 166.538C152.734 168.446 155.455 169.4 158.917 169.4ZM201.7 180L192.796 121.7H203.82L208.696 157.422C208.978 159.471 209.226 161.733 209.438 164.206C209.72 166.679 209.932 168.729 210.074 170.354C210.286 168.729 210.568 166.679 210.922 164.206C211.275 161.733 211.593 159.471 211.876 157.422L217.388 121.7H227.67L233.076 157.422C233.358 159.471 233.676 161.768 234.03 164.312C234.383 166.785 234.666 168.835 234.878 170.46C235.019 168.764 235.231 166.679 235.514 164.206C235.867 161.662 236.15 159.401 236.362 157.422L241.556 121.7H252.156L243.04 180H229.366L224.278 144.066C223.995 142.087 223.677 139.897 223.324 137.494C222.97 135.021 222.688 133.007 222.476 131.452C222.264 133.007 221.981 135.021 221.628 137.494C221.345 139.897 221.027 142.087 220.674 144.066L215.374 180H201.7ZM286.14 181.06C281.194 181.06 276.883 180.106 273.208 178.198C269.534 176.29 266.672 173.64 264.622 170.248C262.644 166.785 261.654 162.757 261.654 158.164V143.536C261.654 138.943 262.644 134.95 264.622 131.558C266.672 128.095 269.534 125.41 273.208 123.502C276.883 121.594 281.194 120.64 286.14 120.64C291.016 120.64 295.256 121.594 298.86 123.502C302.535 125.41 305.362 128.095 307.34 131.558C309.39 134.95 310.414 138.943 310.414 143.536V154.03H274.48V158.164C274.48 162.263 275.47 165.372 277.448 167.492C279.427 169.541 282.36 170.566 286.246 170.566C289.214 170.566 291.617 170.071 293.454 169.082C295.292 168.022 296.458 166.503 296.952 164.524H309.99C309.001 169.541 306.316 173.569 301.934 176.608C297.624 179.576 292.359 181.06 286.14 181.06ZM297.588 146.61V143.43C297.588 139.402 296.634 136.328 294.726 134.208C292.818 132.017 289.956 130.922 286.14 130.922C282.324 130.922 279.427 132.017 277.448 134.208C275.47 136.399 274.48 139.508 274.48 143.536V145.762L298.542 145.55L297.588 146.61ZM327.757 180V121.7H340.265V132.83H343.551L339.629 139.614C339.629 133.325 341.042 128.59 343.869 125.41C346.696 122.23 350.865 120.64 356.377 120.64C362.666 120.64 367.613 122.583 371.217 126.47C374.821 130.357 376.623 135.727 376.623 142.582V146.822H362.737V143.536C362.737 139.791 361.748 136.893 359.769 134.844C357.861 132.795 355.211 131.77 351.819 131.77C348.356 131.77 345.671 132.795 343.763 134.844C341.926 136.893 341.007 139.791 341.007 143.536V180H327.757Z" fill="#93BEFF"/>
<path d="M8.48 180H3.48V185H8.48V180ZM8.48 102.62V97.62H3.48V102.62H8.48ZM56.604 102.62H61.604V97.62H56.604V102.62ZM56.604 114.916V119.916H61.604V114.916H56.604ZM21.518 114.916V109.916H16.518V114.916H21.518ZM21.518 135.586H16.518V140.586H21.518V135.586ZM53.848 135.586H58.848V130.586H53.848V135.586ZM53.848 147.882V152.882H58.848V147.882H53.848ZM21.73 147.882V142.882H16.73V147.882H21.73ZM21.73 180V185H26.73V180H21.73ZM13.48 180V102.62H3.48V180H13.48ZM8.48 107.62H56.604V97.62H8.48V107.62ZM51.604 102.62V114.916H61.604V102.62H51.604ZM56.604 109.916H21.518V119.916H56.604V109.916ZM16.518 114.916V135.586H26.518V114.916H16.518ZM21.518 140.586H53.848V130.586H21.518V140.586ZM48.848 135.586V147.882H58.848V135.586H48.848ZM53.848 142.882H21.73V152.882H53.848V142.882ZM16.73 147.882V180H26.73V147.882H16.73ZM21.73 175H8.48V185H21.73V175ZM94.1926 177.668L91.783 182.049L91.8057 182.062L91.8285 182.074L94.1926 177.668ZM87.5146 171.096L83.1539 173.542L83.1668 173.565L83.1801 173.588L87.5146 171.096ZM85.0766 114.598H90.0766V109.598H85.0766V114.598ZM66.4206 114.598H61.4206V119.598H66.4206V114.598ZM66.4206 102.62V97.62H61.4206V102.62H66.4206ZM98.3266 102.62H103.327V97.62H98.3266V102.62ZM100.129 166.22L96.4935 169.653L96.5916 169.757L96.6955 169.855L100.129 166.22ZM122.813 168.022H127.813V163.022H122.813V168.022ZM122.813 180V185H127.813V180H122.813ZM104.263 175C101.138 175 98.6182 174.368 96.5567 173.262L91.8285 182.074C95.5617 184.077 99.7547 185 104.263 185V175ZM96.6022 173.287C94.5871 172.179 93.0231 170.645 91.8491 168.604L83.1801 173.588C85.2568 177.2 88.1448 180.048 91.783 182.049L96.6022 173.287ZM91.8753 168.65C90.7203 166.591 90.0766 164.132 90.0766 161.132H80.0766C80.0766 165.623 81.0582 169.807 83.1539 173.542L91.8753 168.65ZM90.0766 161.132V114.598H80.0766V161.132H90.0766ZM85.0766 109.598H66.4206V119.598H85.0766V109.598ZM71.4206 114.598V102.62H61.4206V114.598H71.4206ZM66.4206 107.62H98.3266V97.62H66.4206V107.62ZM93.3266 102.62V161.132H103.327V102.62H93.3266ZM93.3266 161.132C93.3266 164.243 94.2373 167.264 96.4935 169.653L103.764 162.787C103.617 162.632 103.327 162.261 103.327 161.132H93.3266ZM96.6955 169.855C99.0845 172.111 102.106 173.022 105.217 173.022V163.022C104.087 163.022 103.717 162.731 103.562 162.585L96.6955 169.855ZM105.217 173.022H122.813V163.022H105.217V173.022ZM117.813 168.022V180H127.813V168.022H117.813ZM122.813 175H104.263V185H122.813V175ZM145.985 178.198L143.646 182.617L143.697 182.644L143.749 182.67L145.985 178.198ZM137.505 170.248L133.164 172.729L133.194 172.782L133.226 172.834L137.505 170.248ZM137.505 131.558L133.202 129.011L133.194 129.025L133.186 129.039L137.505 131.558ZM145.985 123.608L148.256 128.063L148.273 128.054L148.289 128.045L145.985 123.608ZM171.849 123.608L169.51 128.027L169.544 128.045L169.578 128.063L171.849 123.608ZM180.223 131.558L175.882 134.039L175.912 134.092L175.944 134.144L180.223 131.558ZM180.223 170.248L175.92 167.701L175.912 167.715L175.904 167.729L180.223 170.248ZM171.849 178.198L174.12 182.653L174.155 182.635L174.189 182.617L171.849 178.198ZM167.079 166.538L163.544 163.002L163.544 163.002L167.079 166.538ZM167.079 135.162L163.544 138.698L163.576 138.73L163.609 138.761L167.079 135.162ZM150.755 135.162L154.226 138.761L154.226 138.761L150.755 135.162ZM150.755 166.538L147.22 170.074L147.252 170.106L147.285 170.137L150.755 166.538ZM158.917 175.954C154.59 175.954 151.074 175.152 148.221 173.726L143.749 182.67C148.246 184.918 153.351 185.954 158.917 185.954V175.954ZM148.325 173.779C145.497 172.282 143.351 170.256 141.785 167.662L133.226 172.834C135.758 177.024 139.265 180.298 143.646 182.617L148.325 173.779ZM141.846 167.767C140.368 165.179 139.537 162.001 139.537 158.058H129.537C129.537 163.443 130.685 168.391 133.164 172.729L141.846 167.767ZM139.537 158.058V143.642H129.537V158.058H139.537ZM139.537 143.642C139.537 139.696 140.369 136.572 141.824 134.077L133.186 129.039C130.684 133.328 129.537 138.26 129.537 143.642H139.537ZM141.808 134.105C143.372 131.462 145.492 129.472 148.256 128.063L143.714 119.153C139.271 121.419 135.737 124.728 133.202 129.011L141.808 134.105ZM148.289 128.045C151.126 126.573 154.617 125.746 158.917 125.746V115.746C153.324 115.746 148.194 116.827 143.681 119.171L148.289 128.045ZM158.917 125.746C163.304 125.746 166.774 126.579 169.51 128.027L174.189 119.189C169.716 116.821 164.565 115.746 158.917 115.746V125.746ZM169.578 128.063C172.328 129.464 174.394 131.434 175.882 134.039L184.564 129.077C182.095 124.756 178.578 121.426 174.12 119.153L169.578 128.063ZM175.944 134.144C177.451 136.638 178.297 139.707 178.297 143.536H188.297C188.297 138.179 187.094 133.262 184.503 128.972L175.944 134.144ZM178.297 143.536V158.058H188.297V143.536H178.297ZM178.297 158.058C178.297 161.971 177.445 165.125 175.92 167.701L184.526 172.795C187.1 168.445 188.297 163.473 188.297 158.058H178.297ZM175.904 167.729C174.414 170.283 172.323 172.29 169.51 173.779L174.189 182.617C178.583 180.29 182.075 176.997 184.542 172.767L175.904 167.729ZM169.578 173.743C166.826 175.146 163.331 175.954 158.917 175.954V185.954C164.538 185.954 169.664 184.924 174.12 182.653L169.578 173.743ZM158.917 174.4C163.35 174.4 167.505 173.183 170.615 170.074L163.544 163.002C162.837 163.709 161.551 164.4 158.917 164.4V174.4ZM170.615 170.074C173.797 166.891 175.047 162.627 175.047 158.058H165.047C165.047 160.838 164.318 162.228 163.544 163.002L170.615 170.074ZM175.047 158.058V143.642H165.047V158.058H175.047ZM175.047 143.642C175.047 139.047 173.819 134.715 170.55 131.563L163.609 138.761C164.297 139.425 165.047 140.747 165.047 143.642H175.047ZM170.615 131.626C167.505 128.517 163.35 127.3 158.917 127.3V137.3C161.551 137.3 162.837 137.991 163.544 138.698L170.615 131.626ZM158.917 127.3C154.512 127.3 150.421 128.538 147.285 131.563L154.226 138.761C155.047 137.97 156.397 137.3 158.917 137.3V127.3ZM147.285 131.563C144.015 134.715 142.787 139.047 142.787 143.642H152.787C152.787 140.747 153.538 139.425 154.226 138.761L147.285 131.563ZM142.787 143.642V158.058H152.787V143.642H142.787ZM142.787 158.058C142.787 162.627 144.037 166.891 147.22 170.074L154.291 163.002C153.516 162.228 152.787 160.838 152.787 158.058H142.787ZM147.285 170.137C150.421 173.162 154.512 174.4 158.917 174.4V164.4C156.397 164.4 155.047 163.73 154.226 162.939L147.285 170.137ZM201.7 180L196.757 180.755L197.405 185H201.7V180ZM192.796 121.7V116.7H186.974L187.853 122.455L192.796 121.7ZM203.82 121.7L208.774 121.024L208.184 116.7H203.82V121.7ZM208.696 157.422L203.742 158.098L203.743 158.105L208.696 157.422ZM209.438 164.206L204.456 164.633L204.462 164.703L204.47 164.774L209.438 164.206ZM210.074 170.354L205.093 170.787L215.032 171.001L210.074 170.354ZM210.922 164.206L215.872 164.913L215.872 164.913L210.922 164.206ZM211.876 157.422L206.934 156.66L206.928 156.699L206.923 156.739L211.876 157.422ZM217.388 121.7V116.7H213.1L212.446 120.938L217.388 121.7ZM227.67 121.7L232.613 120.952L231.97 116.7H227.67V121.7ZM233.076 157.422L238.029 156.739L238.024 156.706L238.019 156.674L233.076 157.422ZM234.03 164.312L229.077 165L229.079 165.009L229.08 165.019L234.03 164.312ZM234.878 170.46L229.92 171.107L239.861 170.875L234.878 170.46ZM235.514 164.206L230.561 163.518L230.553 163.578L230.546 163.638L235.514 164.206ZM236.362 157.422L231.414 156.703L231.4 156.796L231.39 156.889L236.362 157.422ZM241.556 121.7V116.7H237.23L236.608 120.981L241.556 121.7ZM252.156 121.7L257.096 122.472L257.998 116.7H252.156V121.7ZM243.04 180V185H247.319L247.98 180.772L243.04 180ZM229.366 180L224.415 180.701L225.024 185H229.366V180ZM224.278 144.066L229.228 143.365L229.228 143.359L224.278 144.066ZM223.324 137.494L218.374 138.201L218.375 138.211L218.377 138.221L223.324 137.494ZM222.476 131.452L227.43 130.776H217.522L222.476 131.452ZM221.628 137.494L216.678 136.787L216.669 136.848L216.662 136.91L221.628 137.494ZM220.674 144.066L215.752 143.187L215.738 143.262L215.727 143.336L220.674 144.066ZM215.374 180V185H219.69L220.32 180.73L215.374 180ZM206.642 179.245L197.738 120.945L187.853 122.455L196.757 180.755L206.642 179.245ZM192.796 126.7H203.82V116.7H192.796V126.7ZM198.866 122.376L203.742 158.098L213.65 156.746L208.774 121.024L198.866 122.376ZM203.743 158.105C204.012 160.055 204.25 162.229 204.456 164.633L214.42 163.779C214.202 161.236 213.945 158.888 213.649 156.739L203.743 158.105ZM204.47 164.774C204.75 167.223 204.957 169.223 205.093 170.787L215.055 169.921C214.908 168.234 214.691 166.136 214.405 163.638L204.47 164.774ZM215.032 171.001C215.24 169.403 215.52 167.376 215.872 164.913L205.972 163.499C205.617 165.983 205.331 168.054 205.116 169.707L215.032 171.001ZM215.872 164.913C216.226 162.433 216.545 160.164 216.829 158.105L206.923 156.739C206.641 158.779 206.324 161.032 205.972 163.499L215.872 164.913ZM216.817 158.184L222.329 122.462L212.446 120.938L206.934 156.66L216.817 158.184ZM217.388 126.7H227.67V116.7H217.388V126.7ZM222.726 122.448L228.132 158.17L238.019 156.674L232.613 120.952L222.726 122.448ZM228.123 158.105C228.406 160.156 228.724 162.455 229.077 165L238.982 163.624C238.629 161.081 238.311 158.786 238.029 156.739L228.123 158.105ZM229.08 165.019C229.432 167.482 229.711 169.509 229.92 171.107L239.836 169.813C239.62 168.16 239.334 166.089 238.98 163.605L229.08 165.019ZM239.861 170.875C239.996 169.247 240.202 167.217 240.481 164.774L230.546 163.638C230.26 166.141 230.042 168.281 229.895 170.045L239.861 170.875ZM240.466 164.894C240.825 162.312 241.114 159.997 241.333 157.955L231.39 156.889C231.185 158.804 230.909 161.012 230.561 163.518L240.466 164.894ZM241.31 158.141L246.504 122.419L236.608 120.981L231.414 156.703L241.31 158.141ZM241.556 126.7H252.156V116.7H241.556V126.7ZM247.216 120.928L238.1 179.228L247.98 180.772L257.096 122.472L247.216 120.928ZM243.04 175H229.366V185H243.04V175ZM234.316 179.299L229.228 143.365L219.327 144.767L224.415 180.701L234.316 179.299ZM229.228 143.359C228.944 141.372 228.625 139.175 228.271 136.767L218.377 138.221C218.73 140.619 219.047 142.802 219.328 144.773L229.228 143.359ZM228.274 136.787C227.921 134.319 227.64 132.316 227.43 130.776L217.522 132.128C217.736 133.697 218.02 135.723 218.374 138.201L228.274 136.787ZM217.522 130.776C217.312 132.316 217.031 134.319 216.678 136.787L226.578 138.201C226.932 135.723 227.216 133.697 227.43 132.128L217.522 130.776ZM216.662 136.91C216.389 139.233 216.084 141.323 215.752 143.187L225.596 144.945C225.97 142.851 226.302 140.56 226.594 138.078L216.662 136.91ZM215.727 143.336L210.427 179.27L220.32 180.73L225.62 144.796L215.727 143.336ZM215.374 175H201.7V185H215.374V175ZM273.208 178.198L270.904 182.635L270.904 182.635L273.208 178.198ZM264.622 170.248L260.281 172.729L260.311 172.782L260.343 172.834L264.622 170.248ZM264.622 131.558L260.319 129.011L260.311 129.025L260.303 129.039L264.622 131.558ZM273.208 123.502L270.904 119.065L270.904 119.065L273.208 123.502ZM298.86 123.502L296.521 127.921L296.539 127.93L296.556 127.939L298.86 123.502ZM307.34 131.558L302.999 134.039L303.029 134.092L303.061 134.144L307.34 131.558ZM310.414 154.03V159.03H315.414V154.03H310.414ZM274.48 154.03V149.03H269.48V154.03H274.48ZM277.448 167.492L273.793 170.904L273.822 170.935L273.851 170.965L277.448 167.492ZM293.454 169.082L295.825 173.484L295.889 173.45L295.953 173.413L293.454 169.082ZM296.952 164.524V159.524H293.048L292.102 163.311L296.952 164.524ZM309.99 164.524L314.896 165.491L316.073 159.524H309.99V164.524ZM301.934 176.608L304.77 180.726L304.777 180.721L304.784 180.717L301.934 176.608ZM297.588 146.61H292.588V159.64L301.305 149.955L297.588 146.61ZM294.726 134.208L290.956 137.492L290.983 137.523L291.01 137.553L294.726 134.208ZM277.448 134.208L281.159 137.559L281.159 137.559L277.448 134.208ZM274.48 145.762H269.48V150.806L274.524 150.762L274.48 145.762ZM298.542 145.55L302.259 148.895L309.859 140.45L298.498 140.55L298.542 145.55ZM286.14 176.06C281.841 176.06 278.349 175.233 275.512 173.761L270.904 182.635C275.417 184.979 280.547 186.06 286.14 186.06V176.06ZM275.512 173.761C272.616 172.256 270.454 170.231 268.902 167.662L260.343 172.834C262.89 177.049 266.452 180.324 270.904 182.635L275.512 173.761ZM268.964 167.767C267.478 165.168 266.654 162.021 266.654 158.164H256.654C256.654 163.494 257.809 168.402 260.281 172.729L268.964 167.767ZM266.654 158.164V143.536H256.654V158.164H266.654ZM266.654 143.536C266.654 139.676 267.479 136.583 268.941 134.077L260.303 129.039C257.808 133.317 256.654 138.209 256.654 143.536H266.654ZM268.925 134.105C270.484 131.471 272.642 129.43 275.512 127.939L270.904 119.065C266.425 121.39 262.86 124.72 260.319 129.011L268.925 134.105ZM275.512 127.939C278.349 126.467 281.841 125.64 286.14 125.64V115.64C280.547 115.64 275.417 116.721 270.904 119.065L275.512 127.939ZM286.14 125.64C290.36 125.64 293.766 126.462 296.521 127.921L301.2 119.083C296.747 116.726 291.673 115.64 286.14 115.64V125.64ZM296.556 127.939C299.412 129.422 301.516 131.444 302.999 134.039L311.682 129.077C309.207 124.747 305.658 121.398 301.164 119.065L296.556 127.939ZM303.061 134.144C304.568 136.638 305.414 139.707 305.414 143.536H315.414C315.414 138.179 314.211 133.262 311.62 128.972L303.061 134.144ZM305.414 143.536V154.03H315.414V143.536H305.414ZM310.414 149.03H274.48V159.03H310.414V149.03ZM269.48 154.03V158.164H279.48V154.03H269.48ZM269.48 158.164C269.48 163.005 270.649 167.535 273.793 170.904L281.104 164.08C280.29 163.209 279.48 161.52 279.48 158.164H269.48ZM273.851 170.965C277.075 174.304 281.512 175.566 286.246 175.566V165.566C283.207 165.566 281.779 164.779 281.045 164.019L273.851 170.965ZM286.246 175.566C289.714 175.566 293.016 174.997 295.825 173.484L291.084 164.68C290.218 165.146 288.715 165.566 286.246 165.566V175.566ZM295.953 173.413C298.912 171.706 300.965 169.089 301.803 165.737L292.102 163.311C291.95 163.917 291.671 164.338 290.956 164.751L295.953 173.413ZM296.952 169.524H309.99V159.524H296.952V169.524ZM305.085 163.557C304.358 167.241 302.449 170.166 299.085 172.499L304.784 180.717C310.182 176.973 313.644 171.842 314.896 165.491L305.085 163.557ZM299.099 172.49C295.769 174.782 291.541 176.06 286.14 176.06V186.06C293.177 186.06 299.478 184.37 304.77 180.726L299.099 172.49ZM302.588 146.61V143.43H292.588V146.61H302.588ZM302.588 143.43C302.588 138.674 301.463 134.219 298.443 130.863L291.01 137.553C291.806 138.437 292.588 140.13 292.588 143.43H302.588ZM298.497 130.924C295.363 127.326 290.921 125.922 286.14 125.922V135.922C288.992 135.922 290.274 136.709 290.956 137.492L298.497 130.924ZM286.14 125.922C281.35 125.922 276.924 127.329 273.738 130.857L281.159 137.559C281.93 136.705 283.299 135.922 286.14 135.922V125.922ZM273.738 130.857C270.668 134.256 269.48 138.725 269.48 143.536H279.48C279.48 140.291 280.272 138.541 281.159 137.559L273.738 130.857ZM269.48 143.536V145.762H279.48V143.536H269.48ZM274.524 150.762L298.586 150.55L298.498 140.55L274.436 140.762L274.524 150.762ZM294.826 142.205L293.872 143.265L301.305 149.955L302.259 148.895L294.826 142.205ZM327.757 180H322.757V185H327.757V180ZM327.757 121.7V116.7H322.757V121.7H327.757ZM340.265 121.7H345.265V116.7H340.265V121.7ZM340.265 132.83H335.265V137.83H340.265V132.83ZM343.551 132.83L347.88 135.333L352.217 127.83H343.551V132.83ZM339.629 139.614H334.629V158.253L343.958 142.117L339.629 139.614ZM343.869 125.41L340.132 122.088L340.132 122.088L343.869 125.41ZM371.217 126.47L367.551 129.87L367.551 129.87L371.217 126.47ZM376.623 146.822V151.822H381.623V146.822H376.623ZM362.737 146.822H357.737V151.822H362.737V146.822ZM359.769 134.844L356.11 138.251L356.14 138.284L356.172 138.317L359.769 134.844ZM343.763 134.844L340.104 131.437L340.071 131.471L340.04 131.506L343.763 134.844ZM341.007 180V185H346.007V180H341.007ZM332.757 180V121.7H322.757V180H332.757ZM327.757 126.7H340.265V116.7H327.757V126.7ZM335.265 121.7V132.83H345.265V121.7H335.265ZM340.265 137.83H343.551V127.83H340.265V137.83ZM339.222 130.327L335.3 137.111L343.958 142.117L347.88 135.333L339.222 130.327ZM344.629 139.614C344.629 133.977 345.906 130.644 347.606 128.732L340.132 122.088C336.178 126.536 334.629 132.672 334.629 139.614H344.629ZM347.606 128.732C349.222 126.914 351.844 125.64 356.377 125.64V115.64C349.886 115.64 344.17 117.546 340.132 122.088L347.606 128.732ZM356.377 125.64C361.557 125.64 365.069 127.193 367.551 129.87L374.883 123.07C370.157 117.973 363.776 115.64 356.377 115.64V125.64ZM367.551 129.87C370.069 132.586 371.623 136.607 371.623 142.582H381.623C381.623 134.848 379.573 128.128 374.883 123.07L367.551 129.87ZM371.623 142.582V146.822H381.623V142.582H371.623ZM376.623 141.822H362.737V151.822H376.623V141.822ZM367.737 146.822V143.536H357.737V146.822H367.737ZM367.737 143.536C367.737 138.916 366.5 134.617 363.366 131.371L356.172 138.317C356.995 139.17 357.737 140.665 357.737 143.536H367.737ZM363.428 131.437C360.378 128.161 356.282 126.77 351.819 126.77V136.77C354.14 136.77 355.343 137.428 356.11 138.251L363.428 131.437ZM351.819 126.77C347.32 126.77 343.173 128.14 340.104 131.437L347.422 138.251C348.169 137.45 349.392 136.77 351.819 136.77V126.77ZM340.04 131.506C337.124 134.759 336.007 139.007 336.007 143.536H346.007C346.007 140.574 346.728 139.027 347.486 138.182L340.04 131.506ZM336.007 143.536V180H346.007V143.536H336.007ZM341.007 175H327.757V185H341.007V175Z" fill="#3277FD"/>
<defs>
<filter id="filter0_f_18_3" x="43" y="0" width="283" height="285.853" filterUnits="userSpaceOnUse" color-interpolation-filters="sRGB">
<feFlood flood-opacity="0" result="BackgroundImageFix"/>
<feBlend mode="normal" in="SourceGraphic" in2="BackgroundImageFix" result="shape"/>
<feGaussianBlur stdDeviation="0.5" result="effect1_foregroundBlur_18_3"/>
</filter>
<filter id="filter1_d_18_3" x="104.188" y="1" width="150.64" height="150.64" filterUnits="userSpaceOnUse" color-interpolation-filters="sRGB">
<feFlood flood-opacity="0" result="BackgroundImageFix"/>
<feColorMatrix in="SourceAlpha" type="matrix" values="0 0 0 0 0 0 0 0 0 0 0 0 0 0 0 0 0 0 127 0" result="hardAlpha"/>
<feOffset dy="4"/>
<feGaussianBlur stdDeviation="2"/>
<feComposite in2="hardAlpha" operator="out"/>
<feColorMatrix type="matrix" values="0 0 0 0 0 0 0 0 0 0 0 0 0 0 0 0 0 0 0.25 0"/>
<feBlend mode="normal" in2="BackgroundImageFix" result="effect1_dropShadow_18_3"/>
<feBlend mode="normal" in="SourceGraphic" in2="effect1_dropShadow_18_3" result="shape"/>
</filter>
<filter id="filter2_d_18_3" x="148.406" y="12.4112" width="150.64" height="150.64" filterUnits="userSpaceOnUse" color-interpolation-filters="sRGB">
<feFlood flood-opacity="0" result="BackgroundImageFix"/>
<feColorMatrix in="SourceAlpha" type="matrix" values="0 0 0 0 0 0 0 0 0 0 0 0 0 0 0 0 0 0 127 0" result="hardAlpha"/>
<feOffset dy="4"/>
<feGaussianBlur stdDeviation="2"/>
<feComposite in2="hardAlpha" operator="out"/>
<feColorMatrix type="matrix" values="0 0 0 0 0 0 0 0 0 0 0 0 0 0 0 0 0 0 0.25 0"/>
<feBlend mode="normal" in2="BackgroundImageFix" result="effect1_dropShadow_18_3"/>
<feBlend mode="normal" in="SourceGraphic" in2="effect1_dropShadow_18_3" result="shape"/>
</filter>
<filter id="filter3_d_18_3" x="178.36" y="52.3503" width="150.64" height="150.64" filterUnits="userSpaceOnUse" color-interpolation-filters="sRGB">
<feFlood flood-opacity="0" result="BackgroundImageFix"/>
<feColorMatrix in="SourceAlpha" type="matrix" values="0 0 0 0 0 0 0 0 0 0 0 0 0 0 0 0 0 0 127 0" result="hardAlpha"/>
<feOffset dy="4"/>
<feGaussianBlur stdDeviation="2"/>
<feComposite in2="hardAlpha" operator="out"/>
<feColorMatrix type="matrix" values="0 0 0 0 0 0 0 0 0 0 0 0 0 0 0 0 0 0 0.25 0"/>
<feBlend mode="normal" in2="BackgroundImageFix" result="effect1_dropShadow_18_3"/>
<feBlend mode="normal" in="SourceGraphic" in2="effect1_dropShadow_18_3" result="shape"/>
</filter>
<filter id="filter4_i_18_3" x="176.655" y="106.553" width="142.64" height="146.64" filterUnits="userSpaceOnUse" color-interpolation-filters="sRGB">
<feFlood flood-opacity="0" result="BackgroundImageFix"/>
<feBlend mode="normal" in="SourceGraphic" in2="BackgroundImageFix" result="shape"/>
<feColorMatrix in="SourceAlpha" type="matrix" values="0 0 0 0 0 0 0 0 0 0 0 0 0 0 0 0 0 0 127 0" result="hardAlpha"/>
<feOffset dy="4"/>
<feGaussianBlur stdDeviation="2"/>
<feComposite in2="hardAlpha" operator="arithmetic" k2="-1" k3="1"/>
<feColorMatrix type="matrix" values="0 0 0 0 0 0 0 0 0 0 0 0 0 0 0 0 0 0 0.25 0"/>
<feBlend mode="normal" in2="shape" result="effect1_innerShadow_18_3"/>
</filter>
<filter id="filter5_d_18_3" x="124.157" y="142.213" width="150.64" height="150.64" filterUnits="userSpaceOnUse" color-interpolation-filters="sRGB">
<feFlood flood-opacity="0" result="BackgroundImageFix"/>
<feColorMatrix in="SourceAlpha" type="matrix" values="0 0 0 0 0 0 0 0 0 0 0 0 0 0 0 0 0 0 127 0" result="hardAlpha"/>
<feOffset dy="4"/>
<feGaussianBlur stdDeviation="2"/>
<feComposite in2="hardAlpha" operator="out"/>
<feColorMatrix type="matrix" values="0 0 0 0 0 0 0 0 0 0 0 0 0 0 0 0 0 0 0.25 0"/>
<feBlend mode="normal" in2="BackgroundImageFix" result="effect1_dropShadow_18_3"/>
<feBlend mode="normal" in="SourceGraphic" in2="effect1_dropShadow_18_3" result="shape"/>
</filter>
<filter id="filter6_d_18_3" x="67.1015" y="129.376" width="150.64" height="150.64" filterUnits="userSpaceOnUse" color-interpolation-filters="sRGB">
<feFlood flood-opacity="0" result="BackgroundImageFix"/>
<feColorMatrix in="SourceAlpha" type="matrix" values="0 0 0 0 0 0 0 0 0 0 0 0 0 0 0 0 0 0 127 0" result="hardAlpha"/>
<feOffset dy="4"/>
<feGaussianBlur stdDeviation="2"/>
<feComposite in2="hardAlpha" operator="out"/>
<feColorMatrix type="matrix" values="0 0 0 0 0 0 0 0 0 0 0 0 0 0 0 0 0 0 0.25 0"/>
<feBlend mode="normal" in2="BackgroundImageFix" result="effect1_dropShadow_18_3"/>
<feBlend mode="normal" in="SourceGraphic" in2="effect1_dropShadow_18_3" result="shape"/>
</filter>
<filter id="filter7_d_18_3" x="40" y="29.5279" width="163.477" height="203.416" filterUnits="userSpaceOnUse" color-interpolation-filters="sRGB">
<feFlood flood-opacity="0" result="BackgroundImageFix"/>
<feColorMatrix in="SourceAlpha" type="matrix" values="0 0 0 0 0 0 0 0 0 0 0 0 0 0 0 0 0 0 127 0" result="hardAlpha"/>
<feOffset dy="4"/>
<feGaussianBlur stdDeviation="2"/>
<feComposite in2="hardAlpha" operator="out"/>
<feColorMatrix type="matrix" values="0 0 0 0 0 0 0 0 0 0 0 0 0 0 0 0 0 0 0.25 0"/>
<feBlend mode="normal" in2="BackgroundImageFix" result="effect1_dropShadow_18_3"/>
<feBlend mode="normal" in="SourceGraphic" in2="effect1_dropShadow_18_3" result="shape"/>
</filter>
</defs>
</svg>
